<svg xmlns="http://www.w3.org/2000/svg" viewBox="0 0 568 160">
<g transform="translate(0,20.0)">
<rect x="0" y="0" width="56.70" height="56.70" rx="17.01" fill="#00A99D"/>
<circle cx="28.35" cy="28.35" r="14.74" fill="#FFFFFF"/>
<rect x="63.300000000000004" y="0" width="56.70" height="56.70" rx="17.01" fill="#F5A623"/>
<path d="M 91.65 13.04 L 75.58 40.60 L 107.72 40.60 Z" fill="#FFFFFF" stroke="#FFFFFF" stroke-width="5.67" stroke-linejoin="round"/>
<rect x="0" y="63.300000000000004" width="56.70" height="56.70" rx="17.01" fill="#4A8FD9"/>
<rect x="15.31" y="78.61" width="26.08" height="26.08" rx="5.74" fill="#FFFFFF"/>
<rect x="63.300000000000004" y="63.300000000000004" width="56.70" height="56.70" rx="17.01" fill="#EE6C7C"/>
<g transform="translate(74.07,73.78) scale(1.4648)"><path d="M12 21.35l-1.45-1.32C5.4 15.36 2 12.28 2 8.5 2 5.42 4.42 3 7.5 3c1.74 0 3.41.81 4.5 2.09C13.09 3.81 14.76 3 16.5 3 19.58 3 22 5.42 22 8.5c0 3.78-3.4 6.86-8.55 11.54L12 21.35z" fill="#FFFFFF"/></g>
</g>
<path d="M217.632 38.816Q219.648 37.760000000000005 221.856 38.432Q224.06400000000002 39.104 225.12 41.120000000000005Q226.176 43.040000000000006 228.288 47.072Q229.248 49.087999999999994 228.48 51.199999999999996Q227.712 53.312 225.696 54.272Q223.584 55.232 221.472 54.464Q219.36 53.696 218.304 51.68Q217.824 50.816 215.232 46.016000000000005Q214.176 44.096000000000004 214.848 41.984Q215.52 39.872 217.536 38.816ZM240.48000000000002 37.664Q243.648 43.712 243.744 43.903999999999996Q244.8 45.92 244.08 48.032000000000004Q243.36 50.144000000000005 241.344 51.104L241.05599999999998 51.296Q239.04000000000002 52.256 236.88 51.536Q234.72 50.816 233.664 48.8Q233.184 47.84 232.128 45.824000000000005Q231.072 43.80800000000001 230.49599999999998 42.848Q229.44 40.928 230.064 38.72Q230.688 36.512 232.704 35.55200000000001L232.99200000000002 35.456Q235.00799999999998 34.400000000000006 237.216 35.024Q239.424 35.647999999999996 240.48000000000002 37.664ZM235.392 107.456 235.96800000000002 113.024Q236.256 115.328 234.91199999999998 117.104Q233.56799999999998 118.88 231.264 119.264Q217.824 121.28 202.07999999999998 121.28Q183.648 121.28 175.10399999999998 115.232Q166.56 109.184 166.56 97.28Q166.56 85.088 180.672 76.44800000000001Q181.344 75.968 181.056 75.29599999999999Q180.864 75.00800000000001 180.672 74.24000000000001Q177.888 62.528 175.2 47.84Q174.816 45.632000000000005 176.11200000000002 43.856Q177.40800000000002 42.08 179.61599999999999 41.696L187.584 40.544Q189.792 40.16 191.61599999999999 41.504Q193.44 42.848 193.92000000000002 45.056Q196.128 56.96 198.72 67.52000000000001Q198.816 68.096 199.584 67.904Q210.816 63.872 227.51999999999998 60.032000000000004Q229.632 59.552 231.50400000000002 60.8Q233.376 62.048 233.856 64.256L235.10399999999998 69.824Q235.584 72.03200000000001 234.336 73.952Q233.08800000000002 75.872 230.88 76.352Q213.12 80.48 202.8 84.224Q192.48000000000002 87.968 189.12 90.944Q185.76 93.92 185.76 97.28Q185.76 101.21600000000001 189.504 103.08800000000001Q193.248 104.96000000000001 202.07999999999998 104.96000000000001Q215.328 104.96000000000001 229.344 102.944Q231.55200000000002 102.56 233.328 103.904Q235.10399999999998 105.248 235.392 107.456Z" fill="#3B4A54"/>
<path d="M294.32 60.416000000000004Q294.416 60.128 294.176 59.888000000000005Q293.936 59.648 293.648 59.744Q285.296 62.528 280.688 69.056Q276.08 75.584 276.08 84.8Q276.08 90.272 278.192 95.21600000000001Q280.304 100.16 281.84 100.16Q283.376 100.16 285.296 96.56Q287.216 92.96000000000001 289.664 83.60000000000001Q292.112 74.24000000000001 294.32 60.416000000000004ZM305.84000000000003 41.599999999999994Q322.832 41.599999999999994 334.01599999999996 52.4Q345.2 63.2 345.2 80.0Q345.2 95.744 337.856 105.824Q330.512 115.904 317.84000000000003 118.592Q315.632 119.072 313.712 117.72800000000001Q311.79200000000003 116.384 311.312 114.08L309.968 108.32000000000001Q309.488 106.208 310.688 104.384Q311.888 102.56 314.0 101.792Q327.92 97.088 327.92 80.0Q327.92 72.416 323.98400000000004 66.848Q320.048 61.28 313.424 59.072Q312.656 58.784 312.464 59.648Q309.872 77.12 306.704 88.64Q303.536 100.16 299.6 106.4Q295.664 112.64 291.536 115.03999999999999Q287.408 117.44 281.84 117.44Q273.296 117.44 266.048 107.888Q258.8 98.336 258.8 84.8Q258.8 65.6 271.76 53.599999999999994Q284.72 41.599999999999994 305.84000000000003 41.599999999999994Z" fill="#3B4A54"/>
<path d="M389.44 105.92Q394.336 105.92 396.016 104.864Q397.696 103.808 397.984 100.256Q397.984 99.392 397.408 99.296Q393.952 98.24000000000001 391.36 98.24000000000001Q383.68 98.24000000000001 383.68 102.08000000000001Q383.68 105.92 389.44 105.92ZM432.928 45.44Q435.13599999999997 45.44 436.768 47.072Q438.4 48.70400000000001 438.4 50.912V55.328Q438.4 57.536 436.768 59.168000000000006Q435.13599999999997 60.800000000000004 432.928 60.800000000000004H416.224Q415.36 60.800000000000004 415.36 61.664V63.872Q415.36 64.64 416.224 64.64H429.088Q431.296 64.64 432.928 66.27199999999999Q434.56 67.904 434.56 70.112V74.048Q434.56 76.256 432.928 77.888Q431.296 79.52000000000001 429.088 79.52000000000001H416.224Q415.36 79.52000000000001 415.36 80.384V90.368Q415.36 91.232 416.128 91.712Q424.096 96.70400000000001 432.448 104.19200000000001Q434.08 105.72800000000001 434.224 107.98400000000001Q434.368 110.24000000000001 432.832 111.872L429.568 115.328Q428.032 116.96000000000001 425.82399999999996 117.10400000000001Q423.616 117.248 421.984 115.712Q418.336 112.352 414.592 109.376Q414.016 108.8 413.536 109.664Q411.23199999999997 115.808 405.376 118.54400000000001Q399.52 121.28 389.44 121.28Q378.592 121.28 372.496 116.24000000000001Q366.4 111.2 366.4 102.08Q366.4 93.248 372.352 88.304Q378.304 83.36 389.44 83.36Q393.664 83.36 397.312 84.032Q398.08 84.224 398.08 83.36V80.384Q398.08 79.52000000000001 397.312 79.52000000000001H370.912Q368.704 79.52000000000001 367.072 77.888Q365.44 76.256 365.44 74.048V70.112Q365.44 67.904 367.072 66.27199999999999Q368.704 64.64 370.912 64.64H397.312Q398.08 64.64 398.08 63.872V61.664Q398.08 60.800000000000004 397.312 60.800000000000004H367.072Q364.864 60.800000000000004 363.23199999999997 59.168000000000006Q361.6 57.536 361.6 55.328V50.912Q361.6 48.70400000000001 363.23199999999997 47.072Q364.864 45.44 367.072 45.44H397.312Q398.08 45.44 398.08 44.57600000000001V43.232Q398.08 41.024 399.712 39.392Q401.344 37.760000000000005 403.552 37.760000000000005H409.888Q412.096 37.760000000000005 413.728 39.392Q415.36 41.024 415.36 43.232V44.57600000000001Q415.36 45.44 416.224 45.44Z" fill="#3B4A54"/>
<path d="M502.512 106.88Q506.256 106.88 507.696 105.104Q509.136 103.328 509.23199999999997 98.144Q509.23199999999997 97.184 508.464 96.896Q505.488 95.36 502.512 95.36Q498.76800000000003 95.36 496.8 96.944Q494.832 98.528 494.832 101.12Q494.832 103.808 496.848 105.344Q498.86400000000003 106.88 502.512 106.88ZM536.4 49.568Q538.608 49.760000000000005 540.048 51.584Q541.488 53.408 541.2 55.616L540.624 60.224000000000004Q540.336 62.432 538.56 63.776Q536.784 65.12 534.576 64.832Q529.968 64.256 527.376 64.16Q526.512 64.16 526.512 65.024V89.792Q526.512 90.656 527.28 91.136Q532.272 94.88 538.896 101.12Q540.528 102.75200000000001 540.624 105.00800000000001Q540.72 107.264 539.184 108.992L535.92 112.44800000000001Q534.384 114.08 532.1759999999999 114.224Q529.968 114.36800000000001 528.336 112.83200000000001Q527.76 112.352 526.656 111.392Q525.552 110.432 525.168 110.048Q524.592 109.47200000000001 524.208 110.144Q519.024 121.28 502.512 121.28Q490.704 121.28 484.12800000000004 115.856Q477.552 110.432 477.552 101.12Q477.552 92.0 484.03200000000004 86.48Q490.512 80.96000000000001 502.512 80.96000000000001Q505.584 80.96000000000001 508.368 81.632Q509.23199999999997 81.824 509.23199999999997 81.05600000000001V53.792Q509.23199999999997 51.584 510.864 49.952000000000005Q512.496 48.32000000000001 514.704 48.416Q526.512 48.608000000000004 536.4 49.568ZM497.04 63.68H485.616Q484.752 63.68 484.56 64.54400000000001Q478.896 86.816 471.79200000000003 106.112Q471.024 108.224 468.96000000000004 109.232Q466.896 110.24000000000001 464.688 109.47200000000001L459.216 107.648Q457.104 106.88 456.144 104.912Q455.184 102.944 455.856 100.83200000000001Q462.864 81.344 467.376 64.44800000000001Q467.568 63.68 466.704 63.68H461.904Q459.696 63.68 458.064 62.048Q456.432 60.416000000000004 456.432 58.208V53.792Q456.432 51.584 458.064 49.952000000000005Q459.696 48.32000000000001 461.904 48.32000000000001H470.64Q471.408 48.32000000000001 471.6 47.55200000000001Q472.56 43.328 473.03999999999996 41.120000000000005Q473.52 38.912000000000006 475.392 37.568000000000005Q477.264 36.224000000000004 479.568 36.512L485.136 37.087999999999994Q487.344 37.376000000000005 488.592 39.2Q489.84000000000003 41.024 488.592 39.2Q489.84000000000003 41.024 489.456 43.135999999999996Q489.264 43.903999999999996 488.976 45.344Q488.688 46.784000000000006 488.496 47.55200000000001Q488.304 48.32000000000001 489.168 48.32000000000001H497.04Q499.248 48.32000000000001 500.88 49.952000000000005Q502.512 51.584 502.512 53.792V58.208Q502.512 60.416000000000004 500.88 62.048Q499.248 63.68 497.04 63.68Z" fill="#3B4A54"/>
</svg>
