<svg xmlns="http://www.w3.org/2000/svg" viewBox="0 0 480 460">
<g transform="translate(140.0,20)">
<rect x="0" y="0" width="94.50" height="94.50" rx="28.35" fill="#00A99D"/>
<circle cx="47.25" cy="47.25" r="24.57" fill="#FFFFFF"/>
<rect x="105.5" y="0" width="94.50" height="94.50" rx="28.35" fill="#F5A623"/>
<path d="M 152.75 21.73 L 125.96 67.66 L 179.54 67.66 Z" fill="#FFFFFF" stroke="#FFFFFF" stroke-width="9.45" stroke-linejoin="round"/>
<rect x="0" y="105.5" width="94.50" height="94.50" rx="28.35" fill="#4A8FD9"/>
<rect x="25.52" y="131.01" width="43.47" height="43.47" rx="9.56" fill="#FFFFFF"/>
<rect x="105.5" y="105.5" width="94.50" height="94.50" rx="28.35" fill="#EE6C7C"/>
<g transform="translate(123.46,122.97) scale(2.4412)"><path d="M12 21.35l-1.45-1.32C5.4 15.36 2 12.28 2 8.5 2 5.42 4.42 3 7.5 3c1.74 0 3.41.81 4.5 2.09C13.09 3.81 14.76 3 16.5 3 19.58 3 22 5.42 22 8.5c0 3.78-3.4 6.86-8.55 11.54L12 21.35z" fill="#FFFFFF"/></g>
</g>
<path transform="translate(80.0,330)" d="M50.076 -61.542Q51.714 -62.4 53.507999999999996 -61.854Q55.302 -61.308 56.16 -59.67Q57.018 -58.11 58.734 -54.834Q59.514 -53.196 58.89 -51.480000000000004Q58.266 -49.764 56.628 -48.984Q54.912 -48.204 53.196 -48.828Q51.48 -49.452 50.622 -51.09Q50.232 -51.792 48.126 -55.692Q47.268 -57.252 47.814 -58.968Q48.36 -60.684 49.998 -61.542ZM68.64 -62.478Q71.214 -57.564 71.292 -57.408Q72.15 -55.77 71.565 -54.054Q70.98 -52.338 69.342 -51.558L69.108 -51.402Q67.47 -50.622 65.715 -51.207Q63.96 -51.792 63.102 -53.43Q62.712 -54.21 61.854 -55.848Q60.996 -57.486 60.528 -58.266Q59.67 -59.826 60.177 -61.620000000000005Q60.684 -63.414 62.322 -64.194L62.556 -64.272Q64.194 -65.13 65.988 -64.62299999999999Q67.782 -64.116 68.64 -62.478ZM64.506 -5.772 64.974 -1.248Q65.208 0.624 64.116 2.0669999999999997Q63.024 3.51 61.152 3.822Q50.232 5.46 37.44 5.46Q22.464 5.46 15.521999999999998 0.5459999999999998Q8.58 -4.368 8.58 -14.04Q8.58 -23.946 20.046 -30.966Q20.592 -31.356 20.358 -31.902Q20.202 -32.136 20.046 -32.76Q17.784 -42.276 15.6 -54.21Q15.288 -56.004 16.341 -57.447Q17.394 -58.89 19.188 -59.202L25.662 -60.138Q27.456 -60.45 28.938000000000002 -59.358000000000004Q30.42 -58.266 30.81 -56.472Q32.604 -46.8 34.71 -38.22Q34.788 -37.752 35.412 -37.908Q44.538 -41.184 58.11 -44.304Q59.826 -44.694 61.347 -43.68Q62.868 -42.666 63.258 -40.872L64.272 -36.348Q64.662 -34.554 63.648 -32.994Q62.634 -31.434 60.84 -31.044Q46.41 -27.69 38.025 -24.648000000000003Q29.64 -21.606 26.91 -19.188000000000002Q24.18 -16.77 24.18 -14.04Q24.18 -10.842 27.222 -9.321Q30.264 -7.8 37.44 -7.8Q48.204 -7.8 59.592 -9.438Q61.386 -9.75 62.82900000000001 -8.658Q64.272 -7.566 64.506 -5.772Z" fill="#3B4A54"/>
<path transform="translate(80.0,330)" d="M112.75999999999999 -43.992Q112.838 -44.226 112.643 -44.421Q112.44800000000001 -44.616 112.214 -44.538Q105.428 -42.276 101.684 -36.972Q97.94 -31.668 97.94 -24.18Q97.94 -19.733999999999998 99.656 -15.716999999999999Q101.372 -11.7 102.62 -11.7Q103.868 -11.7 105.428 -14.625Q106.988 -17.55 108.977 -25.155Q110.96600000000001 -32.76 112.75999999999999 -43.992ZM122.12 -59.28Q135.926 -59.28 145.01299999999998 -50.504999999999995Q154.1 -41.73 154.1 -28.08Q154.1 -15.288 148.13299999999998 -7.098Q142.166 1.092 131.87 3.276Q130.076 3.666 128.516 2.574Q126.956 1.482 126.566 -0.39L125.47399999999999 -5.07Q125.084 -6.786 126.059 -8.268Q127.03399999999999 -9.75 128.75 -10.374Q140.06 -14.196 140.06 -28.08Q140.06 -34.242 136.862 -38.766Q133.664 -43.29 128.28199999999998 -45.084Q127.658 -45.318 127.50200000000001 -44.616Q125.396 -30.42 122.822 -21.060000000000002Q120.24799999999999 -11.7 117.05 -6.63Q113.852 -1.56 110.498 0.3899999999999999Q107.144 2.34 102.62 2.34Q95.678 2.34 89.789 -5.421Q83.9 -13.182 83.9 -24.18Q83.9 -39.78 94.43 -49.53Q104.96000000000001 -59.28 122.12 -59.28Z" fill="#3B4A54"/>
<path transform="translate(80.0,330)" d="M190.42000000000002 -7.02Q194.398 -7.02 195.76299999999998 -7.878Q197.128 -8.736 197.362 -11.622Q197.362 -12.324 196.894 -12.402Q194.086 -13.26 191.98 -13.26Q185.74 -13.26 185.74 -10.14Q185.74 -7.02 190.42000000000002 -7.02ZM225.75400000000002 -56.16Q227.548 -56.16 228.874 -54.834Q230.2 -53.508 230.2 -51.714V-48.126Q230.2 -46.332 228.874 -45.006Q227.548 -43.68 225.75400000000002 -43.68H212.18200000000002Q211.48 -43.68 211.48 -42.978V-41.184Q211.48 -40.56 212.18200000000002 -40.56H222.63400000000001Q224.428 -40.56 225.754 -39.234Q227.07999999999998 -37.908 227.07999999999998 -36.114V-32.916Q227.07999999999998 -31.122 225.754 -29.796Q224.428 -28.47 222.63400000000001 -28.47H212.18200000000002Q211.48 -28.47 211.48 -27.768V-19.656Q211.48 -18.954 212.10399999999998 -18.564Q218.578 -14.508 225.364 -8.424Q226.69 -7.176 226.80700000000002 -5.343Q226.924 -3.51 225.676 -2.184L223.024 0.624Q221.776 1.95 219.982 2.067Q218.188 2.184 216.862 0.9359999999999999Q213.898 -1.794 210.856 -4.212Q210.388 -4.68 209.998 -3.978Q208.126 1.014 203.368 3.237Q198.61 5.46 190.42000000000002 5.46Q181.606 5.46 176.653 1.365Q171.7 -2.73 171.7 -10.14Q171.7 -17.316 176.536 -21.333Q181.372 -25.35 190.42000000000002 -25.35Q193.852 -25.35 196.816 -24.804Q197.44 -24.648 197.44 -25.35V-27.768Q197.44 -28.47 196.816 -28.47H175.36599999999999Q173.572 -28.47 172.24599999999998 -29.796Q170.92 -31.122 170.92 -32.916V-36.114Q170.92 -37.908 172.24599999999998 -39.234Q173.572 -40.56 175.36599999999999 -40.56H196.816Q197.44 -40.56 197.44 -41.184V-42.978Q197.44 -43.68 196.816 -43.68H172.246Q170.452 -43.68 169.126 -45.006Q167.8 -46.332 167.8 -48.126V-51.714Q167.8 -53.508 169.126 -54.834Q170.452 -56.16 172.246 -56.16H196.816Q197.44 -56.16 197.44 -56.862V-57.954Q197.44 -59.748 198.766 -61.074Q200.09199999999998 -62.4 201.886 -62.4H207.034Q208.828 -62.4 210.154 -61.074Q211.48 -59.748 211.48 -57.954V-56.862Q211.48 -56.16 212.18200000000002 -56.16Z" fill="#3B4A54"/>
<path transform="translate(80.0,330)" d="M282.666 -6.24Q285.70799999999997 -6.24 286.878 -7.683Q288.048 -9.126 288.126 -13.338Q288.126 -14.118 287.502 -14.352Q285.084 -15.6 282.666 -15.6Q279.624 -15.6 278.025 -14.312999999999999Q276.426 -13.026 276.426 -10.92Q276.426 -8.736 278.06399999999996 -7.488Q279.702 -6.24 282.666 -6.24ZM310.2 -52.806Q311.994 -52.65 313.164 -51.168Q314.334 -49.686 314.1 -47.892L313.632 -44.148Q313.398 -42.354 311.95500000000004 -41.262Q310.512 -40.17 308.718 -40.404Q304.974 -40.872 302.868 -40.95Q302.166 -40.95 302.166 -40.248V-20.124Q302.166 -19.422 302.79 -19.032Q306.846 -15.99 312.228 -10.92Q313.554 -9.594 313.63199999999995 -7.760999999999999Q313.71 -5.928 312.462 -4.524L309.81 -1.716Q308.562 -0.39 306.76800000000003 -0.273Q304.974 -0.156 303.648 -1.404Q303.18 -1.794 302.283 -2.574Q301.386 -3.354 301.074 -3.666Q300.606 -4.134 300.294 -3.588Q296.082 5.46 282.666 5.46Q273.072 5.46 267.72900000000004 1.053Q262.386 -3.354 262.386 -10.92Q262.386 -18.33 267.651 -22.814999999999998Q272.916 -27.3 282.666 -27.3Q285.162 -27.3 287.424 -26.754Q288.126 -26.598 288.126 -27.222V-49.374Q288.126 -51.168 289.452 -52.494Q290.778 -53.82 292.572 -53.742Q302.166 -53.586 310.2 -52.806ZM278.22 -41.34H268.938Q268.236 -41.34 268.08 -40.638Q263.478 -22.542 257.706 -6.864Q257.082 -5.148 255.405 -4.329Q253.728 -3.51 251.934 -4.134L247.488 -5.616Q245.772 -6.24 244.992 -7.839Q244.212 -9.438 244.758 -11.154Q250.452 -26.988 254.118 -40.716Q254.274 -41.34 253.572 -41.34H249.672Q247.878 -41.34 246.552 -42.666Q245.226 -43.992 245.226 -45.786V-49.374Q245.226 -51.168 246.552 -52.494Q247.878 -53.82 249.672 -53.82H256.77Q257.394 -53.82 257.55 -54.444Q258.33 -57.876 258.72 -59.67Q259.11 -61.464 260.631 -62.556Q262.152 -63.648 264.024 -63.414L268.548 -62.946Q270.342 -62.712 271.356 -61.230000000000004Q272.37 -59.748 272.058 -58.032Q271.902 -57.408 271.668 -56.238Q271.434 -55.068 271.278 -54.444Q271.122 -53.82 271.824 -53.82H278.22Q280.014 -53.82 281.34000000000003 -52.494Q282.666 -51.168 282.666 -49.374V-45.786Q282.666 -43.992 281.34000000000003 -42.666Q280.014 -41.34 278.22 -41.34Z" fill="#3B4A54"/>
<path transform="translate(91.5,408)" d="M18.87 -23.46Q19.38 -23.73 19.935 -23.564999999999998Q20.49 -23.4 20.759999999999998 -22.89Q21.21 -22.08 22.11 -20.4Q22.38 -19.89 22.215 -19.365000000000002Q22.05 -18.84 21.54 -18.599999999999998Q21.06 -18.36 20.505 -18.54Q19.95 -18.72 19.68 -19.2Q19.439999999999998 -19.62 18.99 -20.43Q18.54 -21.24 18.33 -21.66Q18.06 -22.14 18.225 -22.68Q18.39 -23.22 18.87 -23.46ZM25.259999999999998 -23.97Q25.74 -23.13 26.64 -21.45Q26.91 -20.97 26.73 -20.415Q26.55 -19.86 26.04 -19.619999999999997Q25.529999999999998 -19.38 24.974999999999998 -19.575Q24.419999999999998 -19.77 24.15 -20.279999999999998Q23.939999999999998 -20.7 23.46 -21.509999999999998Q22.98 -22.32 22.77 -22.71Q22.5 -23.22 22.665 -23.744999999999997Q22.83 -24.27 23.339999999999996 -24.54Q23.849999999999998 -24.81 24.405 -24.645Q24.96 -24.48 25.259999999999998 -23.97ZM15.0 1.65Q3.75 1.65 3.75 -5.1Q3.75 -9.09 9.15 -11.969999999999999Q9.36 -12.09 9.18 -12.27Q8.85 -12.6 8.76 -13.02Q7.62 -17.64 7.02 -21.15Q6.8999999999999995 -21.84 7.289999999999999 -22.38Q7.68 -22.919999999999998 8.37 -23.04Q9.03 -23.16 9.584999999999999 -22.755Q10.139999999999999 -22.349999999999998 10.26 -21.689999999999998Q11.07 -17.25 11.94 -13.799999999999999Q12.0 -13.62 12.0 -13.53Q12.0 -13.26 12.24 -13.379999999999999Q16.23 -15.0 22.529999999999998 -16.47Q23.13 -16.62 23.64 -16.29Q24.15 -15.959999999999999 24.27 -15.389999999999999Q24.39 -14.79 24.045 -14.265Q23.7 -13.74 23.13 -13.62Q14.43 -11.58 10.74 -9.54Q7.05 -7.5 7.05 -5.1Q7.05 -1.2 15.0 -1.2Q19.11 -1.2 23.009999999999998 -1.74Q23.61 -1.8299999999999998 24.075 -1.4699999999999998Q24.54 -1.1099999999999999 24.599999999999998 -0.54Q24.66 0.06 24.299999999999997 0.54Q23.939999999999998 1.02 23.369999999999997 1.1099999999999999Q19.349999999999998 1.65 15.0 1.65Z" fill="#3B4A54" opacity="0.75"/>
<path transform="translate(91.5,408)" d="M46.62 -18.99Q42.69 -18.3 40.394999999999996 -15.66Q38.1 -13.02 38.1 -9.15Q38.1 -6.6 39.165 -4.725Q40.23 -2.85 41.25 -2.85Q41.730000000000004 -2.85 42.24 -3.255Q42.75 -3.6599999999999997 43.379999999999995 -4.77Q44.01 -5.88 44.595 -7.59Q45.18 -9.299999999999999 45.78 -12.195Q46.379999999999995 -15.09 46.83 -18.779999999999998Q46.83 -18.87 46.769999999999996 -18.945Q46.71 -19.02 46.62 -18.99ZM41.25 0.15Q38.94 0.15 37.019999999999996 -2.55Q35.1 -5.25 35.1 -9.15Q35.1 -14.879999999999999 39.0 -18.465Q42.9 -22.05 49.2 -22.05Q54.269999999999996 -22.05 57.584999999999994 -18.87Q60.9 -15.69 60.9 -10.799999999999999Q60.9 -6.12 58.724999999999994 -3.12Q56.55 -0.12 52.769999999999996 0.69Q52.17 0.8099999999999999 51.66 0.44999999999999996Q51.15 0.09 51.0 -0.54Q50.879999999999995 -1.1099999999999999 51.209999999999994 -1.5899999999999999Q51.54 -2.07 52.11 -2.2199999999999998Q54.9 -2.9699999999999998 56.4 -5.16Q57.9 -7.35 57.9 -10.799999999999999Q57.9 -14.19 55.754999999999995 -16.5Q53.61 -18.81 50.25 -19.14Q50.01 -19.2 49.95 -18.9Q49.26 -13.229999999999999 48.315 -9.344999999999999Q47.37 -5.46 46.2 -3.465Q45.03 -1.47 43.86 -0.66Q42.69 0.15 41.25 0.15Z" fill="#3B4A54" opacity="0.75"/>
<path transform="translate(91.5,408)" d="M68.76 -9.24Q68.16 -9.24 67.755 -9.66Q67.35 -10.08 67.35 -10.649999999999999Q67.35 -11.219999999999999 67.755 -11.639999999999999Q68.16 -12.059999999999999 68.76 -12.059999999999999H79.62Q79.86 -12.059999999999999 79.86 -12.33V-13.95Q79.86 -14.76 80.52 -15.27Q80.67 -15.389999999999999 80.91 -15.629999999999999Q80.97 -15.719999999999999 81.15 -15.84Q84.06 -17.73 87.0 -20.279999999999998Q87.06 -20.34 87.045 -20.4Q87.03 -20.46 86.97 -20.46H72.63Q72.06 -20.46 71.655 -20.865000000000002Q71.25 -21.27 71.25 -21.869999999999997Q71.25 -22.439999999999998 71.655 -22.845Q72.06 -23.25 72.63 -23.25H89.82Q90.42 -23.25 90.81 -22.845Q91.2 -22.439999999999998 91.2 -21.869999999999997Q91.2 -20.46 90.21000000000001 -19.529999999999998Q86.97 -16.5 83.37 -14.129999999999999Q83.16 -13.979999999999999 83.16 -13.74V-12.33Q83.16 -12.059999999999999 83.43 -12.059999999999999H93.24Q93.84 -12.059999999999999 94.245 -11.639999999999999Q94.65 -11.219999999999999 94.65 -10.649999999999999Q94.65 -10.08 94.245 -9.66Q93.84 -9.24 93.24 -9.24H83.43Q83.16 -9.24 83.16 -8.969999999999999V-2.4Q83.16 0.57 82.485 1.26Q81.81 1.95 78.96 1.95Q77.73 1.95 75.57 1.8599999999999999Q74.97 1.8299999999999998 74.55 1.41Q74.13 0.99 74.1 0.42Q74.07 -0.15 74.46 -0.5399999999999999Q74.85 -0.9299999999999999 75.42 -0.8999999999999999Q76.71 -0.84 78.36 -0.84Q79.44 -0.84 79.65 -1.05Q79.86 -1.26 79.86 -2.4V-8.969999999999999Q79.86 -9.24 79.62 -9.24Z" fill="#3B4A54" opacity="0.75"/>
<path transform="translate(91.5,408)" d="M103.2 -10.26Q102.63 -10.26 102.24 -10.649999999999999Q101.85 -11.04 101.85 -11.61Q101.85 -12.18 102.24 -12.57Q102.63 -12.959999999999999 103.2 -12.959999999999999H108.39Q108.66 -12.959999999999999 108.66 -13.2Q108.69 -13.979999999999999 108.9 -17.13Q108.9 -17.4 108.66 -17.4H103.95Q103.38 -17.4 102.99 -17.79Q102.6 -18.18 102.6 -18.75Q102.6 -19.32 102.99 -19.71Q103.38 -20.099999999999998 103.95 -20.099999999999998H108.84Q109.11 -20.099999999999998 109.11 -20.37Q109.17 -21.57 109.23 -22.259999999999998Q109.28999999999999 -22.919999999999998 109.785 -23.384999999999998Q110.28 -23.849999999999998 110.94 -23.82Q111.6 -23.79 112.02 -23.325Q112.44 -22.86 112.38 -22.2Q112.32 -21.57 112.26 -20.37Q112.26 -20.099999999999998 112.5 -20.099999999999998H122.1Q122.67 -20.099999999999998 123.06 -19.71Q123.45 -19.32 123.45 -18.75Q123.45 -18.18 123.06 -17.79Q122.67 -17.4 122.1 -17.4H112.32Q112.05 -17.4 112.05 -17.13Q111.87 -14.16 111.81 -13.229999999999999Q111.81 -12.959999999999999 112.08 -12.959999999999999H120.15Q120.72 -12.959999999999999 121.11 -12.57Q121.5 -12.18 121.5 -11.61Q121.5 -11.04 121.11 -10.649999999999999Q120.72 -10.26 120.15 -10.26H111.96Q111.69 -10.26 111.69 -10.02Q111.6 -7.8 111.6 -6.3Q111.6 -3.09 112.57499999999999 -2.145Q113.55 -1.2 116.85 -1.2Q120.3 -1.2 121.8 -2.2199999999999998Q123.3 -3.2399999999999998 123.3 -5.46Q123.3 -5.91 123.21000000000001 -6.45Q123.12 -7.08 123.45 -7.6049999999999995Q123.78 -8.129999999999999 124.38 -8.25Q124.98 -8.4 125.52000000000001 -8.055Q126.06 -7.71 126.15 -7.109999999999999Q126.3 -6.24 126.3 -5.25Q126.3 1.65 116.85 1.65Q111.99 1.65 110.22 -0.030000000000000027Q108.45 -1.71 108.45 -6.3Q108.45 -7.859999999999999 108.53999999999999 -10.02Q108.53999999999999 -10.26 108.27 -10.26Z" fill="#3B4A54" opacity="0.75"/>
<path transform="translate(91.5,408)" d="M138.12 0.87Q136.74 -0.72 134.7 -3.0Q134.22 -3.51 134.265 -4.215Q134.31 -4.92 134.82 -5.3999999999999995Q135.36 -5.88 136.05 -5.835Q136.74 -5.79 137.22 -5.279999999999999Q139.23 -3.12 140.85 -1.2Q141.3 -0.6599999999999999 141.21 0.030000000000000027Q141.12 0.72 140.58 1.14Q140.01 1.5899999999999999 139.305 1.5Q138.6 1.41 138.12 0.87Z" fill="#3B4A54" opacity="0.75"/>
<path transform="translate(91.5,408)" d="M167.73 -5.3999999999999995Q167.16 -5.3999999999999995 166.755 -5.789999999999999Q166.35 -6.18 166.35 -6.779999999999999Q166.35 -7.38 166.755 -7.77Q167.16 -8.16 167.73 -8.16H178.53Q178.8 -8.16 178.8 -8.43V-8.91Q178.8 -9.6 179.28 -10.079999999999998Q179.76 -10.559999999999999 180.45 -10.559999999999999H180.63Q180.84 -10.53 181.02 -10.74Q181.05 -10.77 181.125 -10.829999999999998Q181.2 -10.889999999999999 181.23 -10.92Q182.34 -11.76 183.84 -13.11Q183.99 -13.26 183.75 -13.26H173.19Q172.62 -13.26 172.23000000000002 -13.665Q171.84 -14.07 171.84 -14.64Q171.84 -15.209999999999999 172.23000000000002 -15.584999999999999Q172.62 -15.959999999999999 173.19 -15.959999999999999H186.84Q187.41 -15.959999999999999 187.8 -15.584999999999999Q188.19 -15.209999999999999 188.19 -14.639999999999999Q188.19 -13.29 187.26 -12.299999999999999Q185.52 -10.469999999999999 183.12 -8.64Q182.88 -8.43 182.37 -8.37Q182.28 -8.31 182.28 -8.19L182.31 -8.16Q182.34 -8.16 182.37 -8.16H192.27Q192.84 -8.16 193.245 -7.77Q193.65 -7.38 193.65 -6.779999999999999Q193.65 -6.18 193.245 -5.789999999999999Q192.84 -5.3999999999999995 192.27 -5.3999999999999995H182.37Q182.1 -5.3999999999999995 182.1 -5.13V-1.02Q182.1 1.3499999999999999 181.45499999999998 1.9049999999999998Q180.81 2.46 177.96 2.46Q176.91 2.46 174.57 2.37Q173.97 2.34 173.55 1.92Q173.13 1.5 173.1 0.9299999999999999Q173.07 0.36 173.45999999999998 -0.03Q173.85 -0.42 174.42 -0.39Q176.64 -0.3 177.6 -0.3Q178.5 -0.3 178.65 -0.44999999999999996Q178.8 -0.6 178.8 -1.44V-5.13Q178.8 -5.3999999999999995 178.53 -5.3999999999999995ZM189.54 -14.82V-17.82Q189.54 -18.06 189.27 -18.06H170.73Q170.46 -18.06 170.46 -17.82V-14.82Q170.46 -14.19 170.01 -13.725Q169.56 -13.26 168.93 -13.26Q168.3 -13.26 167.85000000000002 -13.725Q167.4 -14.19 167.4 -14.82V-18.99Q167.4 -19.68 167.91 -20.189999999999998Q168.42 -20.7 169.11 -20.7H171.18Q171.27 -20.7 171.315 -20.775Q171.36 -20.849999999999998 171.33 -20.91Q171.24 -21.119999999999997 171.0 -21.509999999999998Q170.76 -21.9 170.67 -22.08Q170.37 -22.59 170.55 -23.174999999999997Q170.73 -23.759999999999998 171.3 -23.97Q171.9 -24.21 172.53 -24.015Q173.16 -23.82 173.46 -23.25Q174.45 -21.509999999999998 174.72 -20.939999999999998Q174.81 -20.7 175.08 -20.7H178.26Q178.35 -20.7 178.39499999999998 -20.775Q178.44 -20.849999999999998 178.41 -20.91Q177.66 -22.32 177.63 -22.38Q177.33 -22.89 177.525 -23.475Q177.72 -24.06 178.29 -24.27Q178.89 -24.509999999999998 179.505 -24.314999999999998Q180.12 -24.119999999999997 180.42 -23.55Q180.9 -22.71 181.8 -20.91Q181.92 -20.7 182.16 -20.7H184.92Q185.16 -20.7 185.31 -20.91Q186.39 -22.74 186.69 -23.31Q187.02 -23.91 187.60500000000002 -24.18Q188.19 -24.45 188.82 -24.27Q189.39 -24.119999999999997 189.615 -23.58Q189.84 -23.04 189.57 -22.529999999999998L188.67 -20.91Q188.64 -20.849999999999998 188.685 -20.775Q188.73 -20.7 188.82 -20.7H190.89Q191.57999999999998 -20.7 192.08999999999997 -20.189999999999998Q192.6 -19.68 192.6 -18.99V-14.82Q192.6 -14.19 192.14999999999998 -13.725Q191.7 -13.26 191.07 -13.26Q190.44 -13.26 189.99 -13.725Q189.54 -14.19 189.54 -14.82Z" fill="#3B4A54" opacity="0.75"/>
<path transform="translate(91.5,408)" d="M216.32999999999998 -21.48Q216.9 -21.779999999999998 217.5 -21.585Q218.1 -21.39 218.43 -20.849999999999998Q219.45 -19.05 219.93 -18.12Q220.23 -17.58 220.01999999999998 -16.994999999999997Q219.81 -16.41 219.27 -16.14Q218.7 -15.87 218.13 -16.08Q217.56 -16.29 217.26 -16.83Q216.21 -18.72 215.76 -19.5Q215.46 -20.009999999999998 215.625 -20.61Q215.79 -21.21 216.32999999999998 -21.48ZM223.11 -22.08Q224.13 -20.279999999999998 224.61 -19.349999999999998Q224.91 -18.81 224.73000000000002 -18.21Q224.55 -17.61 223.98000000000002 -17.34Q223.41 -17.07 222.81 -17.25Q222.21 -17.43 221.91 -18.0Q221.43 -18.9 220.41 -20.7Q220.07999999999998 -21.24 220.245 -21.825Q220.41 -22.41 220.98000000000002 -22.71Q221.55 -23.009999999999998 222.18 -22.83Q222.81 -22.65 223.11 -22.08ZM202.32 -5.91Q201.9 -5.3999999999999995 201.255 -5.3549999999999995Q200.61 -5.31 200.13 -5.76Q199.65 -6.21 199.62 -6.885Q199.59 -7.56 200.01 -8.04Q202.29 -10.709999999999999 204.12 -13.02Q206.73 -16.29 207.72 -17.07Q208.71 -17.849999999999998 210.33 -17.849999999999998Q211.83 -17.849999999999998 212.925 -17.115Q214.02 -16.38 217.47 -13.049999999999999Q221.43 -9.209999999999999 225.87 -5.25Q226.38 -4.8 226.425 -4.125Q226.47 -3.4499999999999997 226.01999999999998 -2.9399999999999995Q225.57 -2.4299999999999997 224.88 -2.385Q224.19 -2.34 223.68 -2.79Q219.45 -6.569999999999999 214.29 -11.549999999999999Q212.19 -13.559999999999999 211.54500000000002 -14.055Q210.9 -14.549999999999999 210.27 -14.549999999999999Q209.61 -14.549999999999999 209.01 -14.024999999999999Q208.41 -13.5 206.79 -11.43Q203.79 -7.62 202.32 -5.91Z" fill="#3B4A54" opacity="0.75"/>
<path transform="translate(91.5,408)" d="M247.26 -1.41Q247.77 -2.46 247.77 -3.3Q247.77 -5.55 243.93 -5.55Q242.22 -5.55 241.275 -4.965Q240.33 -4.38 240.33 -3.5999999999999996Q240.33 -2.4899999999999998 241.68 -1.815Q243.03 -1.14 245.88 -1.14H246.9Q247.14 -1.14 247.26 -1.41ZM236.46 -8.7Q235.98 -8.459999999999999 235.485 -8.61Q234.99 -8.76 234.75 -9.209999999999999Q234.51 -9.69 234.64499999999998 -10.2Q234.78 -10.709999999999999 235.23 -10.98L249.27 -19.68L249.3 -19.71L249.27 -19.74H237.6Q237.06 -19.74 236.67000000000002 -20.115Q236.28 -20.49 236.28 -21.03Q236.28 -21.57 236.67000000000002 -21.96Q237.06 -22.349999999999998 237.6 -22.349999999999998H253.56Q254.13 -22.349999999999998 254.51999999999998 -21.96Q254.91 -21.57 254.94 -21.0Q255.0 -19.71 253.82999999999998 -19.02L244.26 -13.5V-13.469999999999999H244.32Q246.63 -13.95 248.73 -13.95Q253.29 -13.95 255.435 -12.27Q257.58 -10.59 257.58 -7.26Q257.58 -3.06 254.55 -0.78Q251.52 1.5 245.88 1.5Q241.53 1.5 239.35500000000002 0.18000000000000005Q237.18 -1.14 237.18 -3.5999999999999996Q237.18 -5.49 238.98000000000002 -6.795Q240.78 -8.1 244.08 -8.1Q247.53 -8.1 249.03 -6.945Q250.53 -5.79 250.53 -3.5999999999999996Q250.53 -2.82 250.26 -1.92Q250.23 -1.8299999999999998 250.29 -1.77Q250.35 -1.71 250.44 -1.74Q254.22 -3.0 254.22 -6.8999999999999995Q254.22 -9.27 252.72 -10.364999999999998Q251.22 -11.459999999999999 247.68 -11.459999999999999Q242.16 -11.459999999999999 236.46 -8.7Z" fill="#3B4A54" opacity="0.75"/>
<path transform="translate(91.5,408)" d="M272.055 -3.8549999999999995Q271.35 -4.56 270.36 -4.56Q269.37 -4.56 268.66499999999996 -3.8549999999999995Q267.96 -3.15 267.96 -2.16Q267.96 -1.17 268.66499999999996 -0.46499999999999997Q269.37 0.24 270.36 0.24Q271.35 0.24 272.055 -0.46499999999999997Q272.76 -1.17 272.76 -2.16Q272.76 -3.15 272.055 -3.8549999999999995ZM273.75 1.2299999999999998Q272.34 2.6399999999999997 270.36 2.6399999999999997Q268.38 2.6399999999999997 266.97 1.2299999999999998Q265.56 -0.18 265.56 -2.1599999999999997Q265.56 -4.14 266.97 -5.55Q268.38 -6.96 270.36 -6.96Q272.34 -6.96 273.75 -5.55Q275.16 -4.14 275.16 -2.1599999999999997Q275.16 -0.18 273.75 1.2299999999999998Z" fill="#3B4A54" opacity="0.75"/>
</svg>