<svg xmlns="http://www.w3.org/2000/svg" viewBox="0 0 1200 630">
<rect width="1200" height="630" fill="#FFFFFF"/>

<circle cx="-60" cy="-40" r="220" fill="#00A99D" opacity="0.08"/>
<rect x="1050" y="-90" width="260" height="260" rx="70" fill="#F5A623" opacity="0.10" transform="rotate(12 1180 40)"/>
<path d="M 150 700 L 40 560 L 260 560 Z" fill="#4A8FD9" opacity="0.09" stroke="#4A8FD9" stroke-opacity="0.09" stroke-width="40" stroke-linejoin="round"/>
<g transform="translate(1020,470) scale(9)"><path d="M12 21.35l-1.45-1.32C5.4 15.36 2 12.28 2 8.5 2 5.42 4.42 3 7.5 3c1.74 0 3.41.81 4.5 2.09C13.09 3.81 14.76 3 16.5 3 19.58 3 22 5.42 22 8.5c0 3.78-3.4 6.86-8.55 11.54L12 21.35z" fill="#EE6C7C" opacity="0.10"/></g>

<path transform="translate(231.0,138.0)" d="M2.3800000000000003 -13.226Q1.7340000000000002 -13.362 1.3940000000000001 -13.923000000000002Q1.054 -14.484000000000002 1.2240000000000002 -15.13Q2.278 -19.754 2.754 -24.684Q2.822 -25.330000000000002 3.298 -25.738Q3.7740000000000005 -26.146 4.42 -26.112000000000002Q5.066000000000001 -26.044 5.474 -25.602Q5.882000000000001 -25.16 5.848000000000001 -24.514000000000003Q5.814 -23.868000000000002 5.678000000000001 -22.644000000000002Q5.678000000000001 -22.338 5.95 -22.338H6.426Q6.698 -22.338 6.698 -22.644000000000002V-25.738000000000003Q6.698 -26.486 7.2250000000000005 -27.013Q7.752000000000001 -27.540000000000003 8.5 -27.540000000000003Q9.248000000000001 -27.540000000000003 9.775000000000002 -27.013Q10.302000000000001 -26.486 10.302000000000001 -25.738000000000003V-22.644000000000002Q10.302000000000001 -22.338 10.574000000000002 -22.338H12.07Q12.716000000000001 -22.338 13.158000000000001 -21.896Q13.600000000000001 -21.454 13.600000000000001 -20.808Q13.600000000000001 -20.162000000000003 13.158000000000001 -19.720000000000002Q12.716000000000001 -19.278000000000002 12.07 -19.278000000000002H10.574000000000002Q10.302000000000001 -19.278000000000002 10.302000000000001 -19.006V-12.988000000000001Q10.302000000000001 -12.716000000000001 10.540000000000001 -12.784Q10.812000000000001 -12.852 11.424000000000001 -13.005Q12.036000000000001 -13.158000000000001 12.342 -13.260000000000002Q12.920000000000002 -13.430000000000001 13.396 -13.090000000000002Q13.872000000000002 -12.750000000000002 13.940000000000001 -12.172V-11.866000000000001Q13.940000000000001 -11.696000000000002 14.144000000000002 -11.764000000000001Q14.416 -11.9 14.790000000000001 -11.9H25.806Q26.078000000000003 -11.9 26.078000000000003 -12.172V-14.756Q26.078000000000003 -15.028 25.806 -15.028H14.790000000000001Q14.144000000000002 -15.028 13.702000000000002 -15.47Q13.260000000000002 -15.912 13.260000000000002 -16.558Q13.260000000000002 -17.204 13.702000000000002 -17.646Q14.144000000000002 -18.088 14.790000000000001 -18.088H20.774Q21.080000000000002 -18.088 21.080000000000002 -18.394000000000002V-21.556Q21.080000000000002 -21.828000000000003 20.774 -21.828000000000003H15.776000000000002Q15.164000000000001 -21.828000000000003 14.722000000000001 -22.270000000000003Q14.280000000000001 -22.712000000000003 14.280000000000001 -23.324Q14.280000000000001 -23.936 14.722000000000001 -24.378Q15.164000000000001 -24.82 15.776000000000002 -24.82H20.774Q21.080000000000002 -24.82 21.080000000000002 -25.126V-26.384Q21.080000000000002 -27.132 21.607 -27.676000000000002Q22.134 -28.220000000000002 22.916 -28.220000000000002Q23.664 -28.220000000000002 24.191000000000003 -27.693Q24.718000000000004 -27.166 24.718000000000004 -26.384V-25.126Q24.718000000000004 -24.82 25.024 -24.82H30.124000000000002Q30.736 -24.82 31.178 -24.378Q31.62 -23.936 31.62 -23.324Q31.62 -22.712000000000003 31.178 -22.270000000000003Q30.736 -21.828000000000003 30.124000000000002 -21.828000000000003H25.024Q24.718000000000004 -21.828000000000003 24.718000000000004 -21.556V-18.394000000000002Q24.718000000000004 -18.088 25.024 -18.088H31.28Q31.926000000000002 -18.088 32.368 -17.646Q32.81 -17.204 32.81 -16.558Q32.81 -15.912 32.368 -15.47Q31.926000000000002 -15.028 31.28 -15.028H30.056Q29.750000000000004 -15.028 29.750000000000004 -14.756V-12.172Q29.750000000000004 -11.9 30.056 -11.9H31.28Q31.926000000000002 -11.9 32.368 -11.458Q32.81 -11.016 32.81 -10.370000000000001Q32.81 -9.724 32.368 -9.282Q31.926000000000002 -8.84 31.28 -8.84H30.056Q29.750000000000004 -8.84 29.750000000000004 -8.534V-2.3120000000000003Q29.750000000000004 -1.02 29.716 -0.289Q29.682000000000002 0.44200000000000006 29.478 1.088Q29.274 1.7340000000000002 29.002000000000002 2.0060000000000002Q28.73 2.278 28.118000000000002 2.499Q27.506 2.72 26.809 2.7540000000000004Q26.112000000000002 2.7880000000000003 24.922 2.7880000000000003Q23.426000000000002 2.7880000000000003 22.202 2.72Q21.522000000000002 2.6860000000000004 21.063000000000002 2.2270000000000003Q20.604000000000003 1.7680000000000002 20.57 1.088Q20.536 0.47600000000000003 20.978 0.05100000000000002Q21.42 -0.374 22.032 -0.34Q23.086000000000002 -0.272 24.310000000000002 -0.272Q25.636000000000003 -0.272 25.857000000000003 -0.51Q26.078000000000003 -0.748 26.078000000000003 -2.21V-8.534Q26.078000000000003 -8.84 25.806 -8.84H14.790000000000001Q14.178 -8.84 13.753 -9.265Q13.328000000000001 -9.690000000000001 13.260000000000002 -10.268Q13.260000000000002 -10.506 13.056000000000001 -10.370000000000001Q12.852 -10.200000000000001 12.614 -10.166Q11.254000000000001 -9.758000000000001 10.574000000000002 -9.588000000000001Q10.302000000000001 -9.520000000000001 10.302000000000001 -9.214V1.292Q10.302000000000001 2.04 9.775000000000002 2.55Q9.248000000000001 3.06 8.5 3.06Q7.752000000000001 3.06 7.2250000000000005 2.55Q6.698 2.04 6.698 1.292V-8.33Q6.698 -8.636000000000001 6.426 -8.568000000000001Q5.1000000000000005 -8.262 3.0260000000000002 -7.82Q2.414 -7.684 1.9040000000000001 -8.075000000000001Q1.3940000000000001 -8.466000000000001 1.326 -9.112000000000002Q1.258 -9.758000000000001 1.6320000000000001 -10.285Q2.0060000000000002 -10.812000000000001 2.652 -10.948Q5.1000000000000005 -11.39 6.460000000000001 -11.73Q6.698 -11.764000000000001 6.698 -12.104000000000001V-19.006Q6.698 -19.278000000000002 6.426 -19.278000000000002H5.542000000000001Q5.2700000000000005 -19.278000000000002 5.202 -19.006Q4.7940000000000005 -16.626 4.284000000000001 -14.382000000000001Q4.148000000000001 -13.736 3.5870000000000006 -13.396Q3.0260000000000002 -13.056000000000001 2.3800000000000003 -13.226ZM20.706000000000003 -4.216Q21.182000000000002 -3.7060000000000004 21.148000000000003 -3.0260000000000002Q21.114 -2.346 20.604000000000003 -1.87Q20.128 -1.4280000000000002 19.465 -1.4450000000000003Q18.802 -1.4620000000000002 18.326 -1.9380000000000002Q16.966 -3.4000000000000004 15.47 -4.7940000000000005Q14.994000000000002 -5.2700000000000005 14.977 -5.933Q14.96 -6.596 15.436000000000002 -7.072000000000001Q15.946000000000002 -7.548000000000001 16.626 -7.565000000000001Q17.306 -7.582000000000001 17.816000000000003 -7.106000000000001Q19.312 -5.712000000000001 20.706000000000003 -4.216Z" fill="#3B4A54" opacity="0.72"/>
<path transform="translate(231.0,138.0)" d="M58.128 -5.984V-23.936Q58.128 -24.650000000000002 58.655 -25.160000000000004Q59.182 -25.67 59.896 -25.67Q60.61 -25.67 61.120000000000005 -25.160000000000004Q61.63 -24.650000000000002 61.63 -23.936V-5.984Q61.63 -5.2700000000000005 61.120000000000005 -4.76Q60.61 -4.25 59.896 -4.25Q59.182 -4.25 58.655 -4.76Q58.128 -5.2700000000000005 58.128 -5.984ZM69.552 -25.228V-2.21Q69.552 1.122 68.838 1.9210000000000003Q68.124 2.72 65.132 2.72Q64.384 2.72 62.276 2.6180000000000003Q61.562 2.584 61.052 2.091Q60.542 1.598 60.508 0.8840000000000001Q60.474000000000004 0.23800000000000002 60.95 -0.23800000000000004Q61.426 -0.7140000000000001 62.106 -0.68Q63.262 -0.6120000000000001 64.452 -0.6120000000000001Q65.47200000000001 -0.6120000000000001 65.71000000000001 -0.8670000000000001Q65.94800000000001 -1.122 65.94800000000001 -2.3800000000000003V-25.228Q65.94800000000001 -25.976000000000003 66.47500000000001 -26.503Q67.00200000000001 -27.03 67.75 -27.03Q68.498 -27.03 69.025 -26.503Q69.552 -25.976000000000003 69.552 -25.228ZM42.454 1.7340000000000002Q42.012 2.278 41.315 2.278Q40.618 2.278 40.142 1.7340000000000002Q39.666 1.1560000000000001 39.649 0.40800000000000003Q39.632 -0.34 40.074 -0.9520000000000001Q43.338 -5.5760000000000005 43.576 -15.198Q43.576 -15.47 43.304 -15.47H42.318Q41.536 -15.47 40.958 -16.048000000000002Q40.38 -16.626 40.38 -17.408V-24.582Q40.38 -25.364 40.958 -25.942Q41.536 -26.520000000000003 42.318 -26.520000000000003H53.334Q54.116 -26.520000000000003 54.694 -25.942Q55.272000000000006 -25.364 55.272000000000006 -24.582V-17.408Q55.272000000000006 -16.626 54.694 -16.048000000000002Q54.116 -15.47 53.334 -15.47H47.282Q46.976 -15.47 46.976 -15.198Q46.976 -14.790000000000001 46.959 -13.974Q46.942 -13.158000000000001 46.908 -12.750000000000002Q46.908 -12.512 47.18 -12.512H53.334Q54.116 -12.512 54.677 -11.951Q55.238 -11.39 55.238 -10.608Q55.204 -4.454000000000001 54.864000000000004 -1.6490000000000002Q54.524 1.1560000000000001 53.861000000000004 1.9380000000000002Q53.198 2.72 51.702 2.72Q50.274 2.72 48.234 2.6180000000000003Q47.52 2.584 47.027 2.091Q46.534 1.598 46.5 0.8840000000000001Q46.466 0.23800000000000002 46.942 -0.22100000000000003Q47.418 -0.68 48.098 -0.646Q48.948 -0.6120000000000001 50.342 -0.6120000000000001Q50.886 -0.6120000000000001 51.141000000000005 -1.1390000000000002Q51.396 -1.6660000000000001 51.583 -3.5530000000000004Q51.77 -5.44 51.77 -9.146Q51.77 -9.452 51.464 -9.452H46.874Q46.602000000000004 -9.452 46.534 -9.146Q45.548 -2.244 42.454 1.7340000000000002ZM43.848 -23.256V-18.564Q43.848 -18.258000000000003 44.154 -18.258000000000003H51.668Q51.94 -18.258000000000003 51.94 -18.564V-23.256Q51.94 -23.528000000000002 51.668 -23.528000000000002H44.154Q43.848 -23.528000000000002 43.848 -23.256Z" fill="#3B4A54" opacity="0.72"/>
<path transform="translate(231.0,138.0)" d="M79.774 -21.148000000000003Q79.128 -21.148000000000003 78.669 -21.607000000000003Q78.21 -22.066000000000003 78.21 -22.712000000000003Q78.21 -23.358 78.669 -23.783Q79.128 -24.208000000000002 79.774 -24.208000000000002H90.926Q91.232 -24.208000000000002 91.232 -24.514000000000003V-26.01Q91.232 -26.792 91.793 -27.336000000000002Q92.354 -27.880000000000003 93.102 -27.880000000000003Q93.85 -27.880000000000003 94.411 -27.336000000000002Q94.97200000000001 -26.792 94.97200000000001 -26.01V-24.514000000000003Q94.97200000000001 -24.208000000000002 95.278 -24.208000000000002H106.464Q107.11 -24.208000000000002 107.55199999999999 -23.783Q107.994 -23.358 107.994 -22.712000000000003Q107.994 -22.066000000000003 107.55199999999999 -21.607000000000003Q107.11 -21.148000000000003 106.464 -21.148000000000003H95.278Q94.97200000000001 -21.148000000000003 94.97200000000001 -20.876V-17.136000000000003Q94.97200000000001 -16.830000000000002 95.278 -16.830000000000002H103.166Q103.778 -16.830000000000002 104.22 -16.388Q104.662 -15.946000000000002 104.662 -15.334000000000001Q104.662 -13.804 103.94800000000001 -12.546000000000001Q101.262 -7.7860000000000005 96.876 -4.556Q96.604 -4.386 96.876 -4.25Q101.092 -2.244 106.872 -0.9860000000000001Q107.48400000000001 -0.8500000000000001 107.79 -0.30600000000000005Q108.096 0.23800000000000002 107.892 0.8500000000000001Q107.654 1.53 107.042 1.87Q106.43 2.21 105.75 2.0740000000000003Q98.338 0.51 93.476 -2.108Q93.238 -2.244 92.96600000000001 -2.1420000000000003Q87.764 0.6120000000000001 80.45400000000001 2.0740000000000003Q79.774 2.21 79.162 1.853Q78.55 1.496 78.312 0.8500000000000001Q78.108 0.23800000000000002 78.414 -0.30600000000000005Q78.72 -0.8500000000000001 79.332 -0.9860000000000001Q85.146 -2.21 89.668 -4.284000000000001Q89.736 -4.3180000000000005 89.753 -4.4030000000000005Q89.77 -4.488 89.702 -4.556Q86.302 -7.174 84.194 -10.370000000000001Q83.82 -10.948 84.05799999999999 -11.611Q84.296 -12.274000000000001 84.976 -12.546000000000001Q85.724 -12.818000000000001 86.47200000000001 -12.563000000000002Q87.22 -12.308000000000002 87.696 -11.628Q89.872 -8.568000000000001 93.068 -6.392Q93.306 -6.222 93.544 -6.392Q97.998 -9.316 100.48 -13.566Q100.548 -13.634 100.497 -13.736Q100.446 -13.838000000000001 100.344 -13.838000000000001H82.358Q81.746 -13.838000000000001 81.304 -14.280000000000001Q80.862 -14.722000000000001 80.862 -15.334000000000001Q80.862 -15.946000000000002 81.304 -16.388Q81.746 -16.830000000000002 82.358 -16.830000000000002H90.926Q91.232 -16.830000000000002 91.232 -17.136000000000003V-20.876Q91.232 -21.148000000000003 90.926 -21.148000000000003Z" fill="#3B4A54" opacity="0.72"/>
<path transform="translate(231.0,138.0)" d="M116.788 -18.53Q116.142 -18.53 115.69999999999999 -18.972Q115.258 -19.414 115.258 -20.060000000000002Q115.258 -20.706000000000003 115.69999999999999 -21.148000000000003Q116.142 -21.59 116.788 -21.59H118.726Q119.032 -21.59 119.032 -21.896V-25.806Q119.032 -26.520000000000003 119.542 -27.03Q120.052 -27.540000000000003 120.766 -27.540000000000003Q121.48 -27.540000000000003 121.99000000000001 -27.03Q122.5 -26.520000000000003 122.5 -25.806V-21.896Q122.5 -21.59 122.772 -21.59H123.928Q124.574 -21.59 125.01599999999999 -21.148000000000003Q125.458 -20.706000000000003 125.458 -20.060000000000002Q125.458 -19.414 125.01599999999999 -18.972Q124.574 -18.53 123.928 -18.53H122.772Q122.5 -18.53 122.5 -18.224V-11.934000000000001Q122.5 -11.662 122.772 -11.73Q123.01 -11.832 123.486 -11.968Q123.962 -12.104000000000001 124.2 -12.206000000000001Q124.778 -12.376000000000001 125.254 -12.07Q125.73 -11.764000000000001 125.764 -11.186Q125.832 -10.506 125.475 -9.911000000000001Q125.118 -9.316 124.47200000000001 -9.078000000000001Q124.166 -8.976 123.571 -8.789000000000001Q122.976 -8.602 122.738 -8.5Q122.5 -8.398000000000001 122.5 -8.126000000000001V-2.21Q122.5 1.1560000000000001 121.973 1.9380000000000002Q121.446 2.72 119.168 2.72Q118.012 2.72 117.128 2.652Q116.516 2.6180000000000003 116.09100000000001 2.1590000000000003Q115.666 1.7000000000000002 115.632 1.054Q115.598 0.47600000000000003 116.03999999999999 0.05100000000000002Q116.482 -0.374 117.06 -0.30600000000000005Q117.536 -0.272 118.148 -0.272Q118.794 -0.272 118.913 -0.49300000000000005Q119.032 -0.7140000000000001 119.032 -2.04V-7.106000000000001Q119.032 -7.378 118.726 -7.3100000000000005L117.094 -6.902Q116.44800000000001 -6.766000000000001 115.938 -7.140000000000001Q115.428 -7.514 115.36 -8.16Q115.326 -8.84 115.734 -9.384Q116.142 -9.928 116.822 -10.098Q118.25 -10.404 118.726 -10.540000000000001Q119.032 -10.608 119.032 -10.914000000000001V-18.224Q119.032 -18.53 118.726 -18.53ZM123.214 1.054Q122.772 0.47600000000000003 122.82300000000001 -0.255Q122.874 -0.9860000000000001 123.35 -1.53Q127.19200000000001 -5.678000000000001 128.416 -11.56Q128.484 -11.832 128.178 -11.832H126.376Q125.798 -11.832 125.373 -12.240000000000002Q124.94800000000001 -12.648000000000001 124.94800000000001 -13.226Q124.94800000000001 -13.804 125.373 -14.212Q125.798 -14.620000000000001 126.376 -14.620000000000001H128.586Q128.892 -14.620000000000001 128.892 -14.926000000000002Q128.926 -15.232000000000001 128.926 -15.776000000000002Q128.926 -16.048000000000002 128.654 -16.048000000000002H126.614Q126.07 -16.048000000000002 125.679 -16.439Q125.288 -16.830000000000002 125.288 -17.374000000000002Q125.288 -17.918000000000003 125.679 -18.309000000000005Q126.07 -18.700000000000003 126.614 -18.700000000000003H127.498Q127.804 -18.700000000000003 127.668 -18.972Q127.532 -19.244 127.294 -19.788Q127.056 -20.332 127.022 -20.366000000000003Q126.682 -21.046000000000003 126.988 -21.76Q127.294 -22.474 128.008 -22.712000000000003H128.076Q128.076 -22.746000000000002 128.042 -22.814Q127.838 -22.814 127.362 -22.797Q126.886 -22.78 126.648 -22.78Q126.002 -22.78 125.526 -23.205000000000002Q125.05 -23.630000000000003 125.016 -24.276000000000003Q124.94800000000001 -24.888 125.356 -25.330000000000002Q125.764 -25.772000000000002 126.376 -25.772000000000002Q136.746 -25.874000000000002 143.954 -27.166Q144.566 -27.268 145.09300000000002 -26.945Q145.62 -26.622000000000003 145.756 -26.01Q145.892 -25.432000000000002 145.552 -24.905Q145.212 -24.378 144.63400000000001 -24.276000000000003Q144.43 -24.242 143.988 -24.157000000000004Q143.546 -24.072000000000003 143.274 -24.038Q143.24 -24.038 143.24 -23.987000000000002Q143.24 -23.936 143.274 -23.936L143.58 -23.868000000000002Q144.328 -23.698 144.736 -23.001Q145.144 -22.304000000000002 144.906 -21.556Q144.498 -20.264000000000003 143.988 -19.006Q143.954 -18.904 144.005 -18.802Q144.056 -18.700000000000003 144.15800000000002 -18.700000000000003H144.974Q145.518 -18.700000000000003 145.909 -18.309000000000005Q146.3 -17.918000000000003 146.3 -17.374000000000002Q146.3 -16.830000000000002 145.909 -16.439Q145.518 -16.048000000000002 144.974 -16.048000000000002H132.7Q132.428 -16.048000000000002 132.428 -15.776000000000002Q132.428 -15.504000000000001 132.36 -14.892000000000001Q132.36 -14.620000000000001 132.632 -14.620000000000001H145.246Q145.824 -14.620000000000001 146.232 -14.212Q146.64 -13.804 146.64 -13.226Q146.64 -12.648000000000001 146.232 -12.240000000000002Q145.824 -11.832 145.246 -11.832H132.258Q131.986 -11.832 131.918 -11.526000000000002Q131.88400000000001 -11.39 131.83300000000003 -11.118Q131.782 -10.846 131.748 -10.71Q131.68 -10.472000000000001 131.952 -10.472000000000001H143.614Q144.15800000000002 -10.472000000000001 144.549 -10.081000000000001Q144.94 -9.690000000000001 144.94 -9.146Q144.94 -7.82 144.226 -6.732Q142.662 -4.454000000000001 140.316 -2.6180000000000003Q140.248 -2.584 140.248 -2.465Q140.248 -2.346 140.35 -2.3120000000000003Q142.73 -1.36 145.552 -0.7140000000000001Q146.164 -0.5780000000000001 146.453 -0.03400000000000003Q146.74200000000002 0.51 146.50400000000002 1.088Q146.232 1.7340000000000002 145.637 2.04Q145.042 2.346 144.39600000000002 2.21Q140.38400000000001 1.2240000000000002 137.12 -0.30600000000000005Q136.848 -0.40800000000000003 136.61 -0.30600000000000005Q133.754 1.1560000000000001 130.082 2.1420000000000003Q129.436 2.3120000000000003 128.824 2.04Q128.212 1.7680000000000002 127.906 1.1560000000000001Q127.634 0.6120000000000001 127.906 0.06800000000000003Q128.178 -0.47600000000000003 128.756 -0.6120000000000001Q131.544 -1.292 133.516 -2.176Q133.584 -2.21 133.601 -2.295Q133.618 -2.3800000000000003 133.55 -2.4480000000000004Q131.748 -3.74 130.218 -5.372000000000001Q130.014 -5.5760000000000005 129.912 -5.372000000000001Q128.246 -1.802 125.526 1.1900000000000002Q125.05 1.7000000000000002 124.35300000000001 1.649Q123.656 1.598 123.214 1.054ZM140.622 -7.82H131.204Q130.898 -7.82 130.796 -7.548000000000001Q130.728 -7.344 130.59199999999998 -7.0040000000000004Q130.456 -6.664000000000001 130.388 -6.460000000000001Q130.354 -6.392 130.405 -6.3580000000000005Q130.456 -6.324000000000001 130.524 -6.3580000000000005L130.966 -6.562Q131.714 -6.970000000000001 132.547 -6.851000000000001Q133.38 -6.732 134.026 -6.154000000000001Q135.046 -5.236000000000001 136.712 -4.148000000000001Q136.916 -3.978 137.154 -4.148000000000001Q139.262 -5.61 140.724 -7.582000000000001Q140.894 -7.82 140.622 -7.82ZM136.338 -23.222Q136.032 -23.222 136.168 -22.950000000000003Q136.95 -21.386000000000003 137.902 -19.006Q138.038 -18.700000000000003 138.31 -18.700000000000003H139.976Q140.282 -18.700000000000003 140.38400000000001 -18.938000000000002Q141.132 -20.842000000000002 141.948 -23.562Q141.982 -23.664 141.914 -23.749000000000002Q141.846 -23.834000000000003 141.744 -23.8Q139.874 -23.528000000000002 136.338 -23.222ZM129.674 -22.848000000000003Q129.572 -22.848000000000003 129.52100000000002 -22.763Q129.47 -22.678 129.538 -22.610000000000003Q130.354 -20.978 131.204 -18.938000000000002Q131.306 -18.700000000000003 131.578 -18.700000000000003H134.23Q134.536 -18.700000000000003 134.4 -18.972Q134.298 -19.21 134.043 -19.822000000000003Q133.788 -20.434 133.618 -20.774Q133.312 -21.42 133.584 -22.1Q133.856 -22.78 134.57 -23.018Q134.536 -23.052000000000003 134.536 -23.086000000000002Q131.442 -22.882 129.674 -22.848000000000003Z" fill="#3B4A54" opacity="0.72"/>
<path transform="translate(231.0,138.0)" d="M183.62 -23.188000000000002Q184.3 -23.188000000000002 184.74200000000002 -22.746000000000002Q185.184 -22.304000000000002 185.184 -21.624000000000002V-21.454Q185.184 -20.876 184.776 -20.468000000000004Q184.368 -20.060000000000002 183.79 -20.060000000000002Q183.586 -20.060000000000002 183.586 -19.822000000000003Q182.668 -10.506 179.574 -5.678000000000001Q179.404 -5.44 179.608 -5.168Q181.20600000000002 -2.89 183.858 -1.02Q184.402 -0.6120000000000001 184.572 0.0Q184.74200000000002 0.6120000000000001 184.436 1.2240000000000002Q184.13 1.802 183.501 1.955Q182.872 2.108 182.328 1.7680000000000002Q179.438 -0.17 177.5 -2.584Q177.296 -2.822 177.092 -2.6180000000000003Q174.542 -0.10200000000000001 170.394 1.9380000000000002Q169.782 2.244 169.13600000000002 2.04Q168.49 1.836 168.11599999999999 1.258Q167.776 0.7140000000000001 167.946 0.11900000000000002Q168.11599999999999 -0.47600000000000003 168.69400000000002 -0.748Q172.978 -2.8560000000000003 175.324 -5.44Q175.494 -5.61 175.358 -5.916Q173.692 -9.214 172.70600000000002 -14.144000000000002Q172.672 -14.212000000000002 172.62099999999998 -14.229000000000001Q172.57 -14.246 172.536 -14.178Q172.366 -13.804 171.584 -12.342Q171.244 -11.764000000000001 170.58100000000002 -11.628Q169.918 -11.492 169.40800000000002 -11.934000000000001Q168.864 -12.41 168.745 -13.175Q168.626 -13.940000000000001 169.0 -14.586Q171.618 -19.448 173.352 -26.520000000000003Q173.488 -27.166 174.066 -27.557000000000002Q174.644 -27.948 175.324 -27.880000000000003Q175.97 -27.812 176.361 -27.285000000000004Q176.752 -26.758000000000003 176.616 -26.112000000000002Q176.276 -24.582 175.97 -23.494000000000003Q175.936 -23.392000000000003 176.02100000000002 -23.290000000000003Q176.106 -23.188000000000002 176.208 -23.188000000000002ZM177.772 -9.078000000000001Q179.642 -12.988000000000001 180.322 -19.788Q180.322 -20.060000000000002 180.084 -20.060000000000002H175.222Q174.95 -20.060000000000002 174.848 -19.788Q174.576 -18.938000000000002 174.168 -17.918000000000003Q174.1 -17.748 174.27 -17.748Q174.814 -17.816000000000003 175.256 -17.51Q175.698 -17.204 175.766 -16.66Q176.446 -12.002 177.534 -9.112Q177.568 -9.044 177.63600000000002 -9.027000000000001Q177.704 -9.01 177.772 -9.078000000000001ZM154.686 -16.048000000000002Q154.074 -16.048000000000002 153.649 -16.490000000000002Q153.224 -16.932000000000002 153.224 -17.544000000000004Q153.224 -18.156000000000002 153.649 -18.598000000000003Q154.074 -19.040000000000003 154.686 -19.040000000000003H158.868Q159.174 -19.040000000000003 159.174 -19.312V-22.406000000000002Q159.174 -22.712000000000003 158.868 -22.712000000000003H155.808Q155.23 -22.712000000000003 154.822 -23.120000000000005Q154.414 -23.528000000000002 154.414 -24.106Q154.414 -24.684 154.822 -25.092000000000002Q155.23 -25.500000000000004 155.808 -25.500000000000004H158.868Q159.174 -25.500000000000004 159.174 -25.806V-26.248Q159.174 -26.996000000000002 159.684 -27.523000000000003Q160.194 -28.05 160.942 -28.05Q161.69 -28.05 162.21699999999998 -27.523000000000003Q162.744 -26.996000000000002 162.744 -26.248V-25.806Q162.744 -25.500000000000004 163.016 -25.500000000000004H164.954Q165.736 -25.500000000000004 166.314 -24.922000000000004Q166.892 -24.344 166.892 -23.562Q166.892 -23.494000000000003 166.95999999999998 -23.477000000000004Q167.028 -23.46 167.062 -23.528000000000002Q167.606 -24.310000000000002 168.252 -25.500000000000004Q168.558 -26.078000000000003 169.17000000000002 -26.316000000000003Q169.782 -26.554000000000002 170.394 -26.316000000000003Q170.972 -26.078000000000003 171.19299999999998 -25.534000000000002Q171.414 -24.990000000000002 171.142 -24.412000000000003Q169.714 -21.658 167.87800000000001 -19.278000000000002Q167.708 -19.040000000000003 167.98 -19.040000000000003H168.456Q169.068 -19.040000000000003 169.51 -18.598000000000003Q169.952 -18.156000000000002 169.952 -17.544000000000004Q169.952 -16.932000000000002 169.51 -16.490000000000002Q169.068 -16.048000000000002 168.456 -16.048000000000002H165.362Q165.022 -16.048000000000002 164.852 -15.878000000000002Q163.492 -14.518 162.438 -13.634Q162.37 -13.600000000000001 162.404 -13.515Q162.438 -13.430000000000001 162.506 -13.430000000000001H167.198Q167.776 -13.430000000000001 168.18400000000003 -13.022000000000002Q168.592 -12.614 168.592 -12.036000000000001Q168.592 -10.574000000000002 167.64 -9.554Q166.756 -8.636000000000001 165.464 -7.514Q165.39600000000002 -7.48 165.43 -7.412000000000001Q165.464 -7.344 165.532 -7.344Q165.668 -7.344 169.748 -7.684Q170.292 -7.718000000000001 170.71699999999998 -7.361000000000001Q171.142 -7.0040000000000004 171.176 -6.426Q171.21 -5.848000000000001 170.80200000000002 -5.372000000000001Q170.394 -4.896000000000001 169.816 -4.862Q167.436 -4.658 164.75 -4.454000000000001Q164.444 -4.454000000000001 164.444 -4.114V-1.87Q164.444 1.122 163.764 1.8360000000000003Q163.084 2.5500000000000003 160.262 2.5500000000000003Q158.766 2.5500000000000003 157.712 2.482Q157.066 2.4480000000000004 156.64100000000002 1.9890000000000003Q156.216 1.53 156.182 0.8840000000000001Q156.148 0.272 156.59 -0.136Q157.032 -0.544 157.644 -0.51Q158.052 -0.51 158.732 -0.459Q159.412 -0.40800000000000003 159.684 -0.40800000000000003Q160.568 -0.40800000000000003 160.721 -0.6460000000000001Q160.874 -0.8840000000000001 160.874 -2.21V-3.91Q160.874 -4.182 160.602 -4.182Q158.698 -4.08 154.924 -3.9440000000000004Q154.312 -3.91 153.87 -4.318Q153.428 -4.726 153.394 -5.338Q153.36 -5.916 153.751 -6.3580000000000005Q154.142 -6.800000000000001 154.72 -6.8340000000000005Q158.596 -6.970000000000001 160.636 -7.072000000000001Q160.874 -7.072000000000001 160.874 -7.3100000000000005V-7.446000000000001Q160.874 -8.024000000000001 161.28199999999998 -8.432Q161.69 -8.84 162.268 -8.84Q162.54 -8.84 162.676 -8.976Q163.628 -9.690000000000001 164.444 -10.438Q164.614 -10.608 164.342 -10.608H158.63Q158.358 -10.608 158.12 -10.472000000000001Q156.964 -9.758000000000001 155.774 -9.146Q155.196 -8.874 154.635 -9.061Q154.074 -9.248000000000001 153.734 -9.792000000000002Q153.428 -10.302000000000001 153.58100000000002 -10.88Q153.734 -11.458 154.278 -11.73Q157.44 -13.464 160.262 -15.878000000000002Q160.33 -15.912 160.296 -15.98Q160.262 -16.048000000000002 160.194 -16.048000000000002ZM162.744 -22.406000000000002V-19.312Q162.744 -19.040000000000003 163.016 -19.040000000000003H163.254Q163.526 -19.040000000000003 163.73 -19.244Q165.192 -20.876 166.314 -22.474Q166.484 -22.712000000000003 166.212 -22.712000000000003H163.016Q162.744 -22.712000000000003 162.744 -22.406000000000002Z" fill="#3B4A54" opacity="0.72"/>
<path transform="translate(231.0,138.0)" d="M214.14 -0.40800000000000003Q215.16 -0.40800000000000003 215.32999999999998 -0.544Q215.5 -0.68 215.5 -1.36V-2.244Q215.5 -2.5500000000000003 215.228 -2.5500000000000003H198.806Q198.5 -2.5500000000000003 198.5 -2.244V0.8500000000000001Q198.5 1.6320000000000001 197.95600000000002 2.176Q197.412 2.72 196.63 2.72Q195.848 2.72 195.304 2.176Q194.76 1.6320000000000001 194.76 0.8500000000000001V-12.614Q194.76 -13.396 195.338 -13.974Q195.916 -14.552000000000001 196.698 -14.552000000000001H217.302Q218.084 -14.552000000000001 218.662 -13.974Q219.24 -13.396 219.24 -12.614V-1.36Q219.24 1.3940000000000001 218.49200000000002 2.023Q217.744 2.652 214.548 2.652Q214.242 2.652 213.8 2.6350000000000002Q213.358 2.6180000000000003 212.559 2.5840000000000005Q211.76 2.5500000000000003 211.08 2.516Q210.434 2.482 209.99200000000002 2.04Q209.55 1.598 209.516 0.9520000000000001Q209.482 0.34 209.924 -0.10200000000000001Q210.366 -0.544 210.978 -0.51Q213.222 -0.40800000000000003 214.14 -0.40800000000000003ZM198.5 -11.424000000000001V-10.064Q198.5 -9.758000000000001 198.806 -9.758000000000001H215.228Q215.5 -9.758000000000001 215.5 -10.064V-11.424000000000001Q215.5 -11.73 215.228 -11.73H198.806Q198.5 -11.73 198.5 -11.424000000000001ZM215.228 -5.168Q215.5 -5.168 215.5 -5.474V-6.868Q215.5 -7.140000000000001 215.228 -7.140000000000001H198.806Q198.5 -7.140000000000001 198.5 -6.868V-5.474Q198.5 -5.168 198.806 -5.168ZM193.128 -22.508000000000003Q192.55 -22.508000000000003 192.125 -22.950000000000003Q191.7 -23.392000000000003 191.7 -23.970000000000002Q191.7 -24.548000000000002 192.125 -24.990000000000002Q192.55 -25.432000000000002 193.128 -25.432000000000002H204.824Q205.13 -25.432000000000002 205.13 -25.704V-26.35Q205.13 -27.132 205.691 -27.676000000000002Q206.252 -28.220000000000002 207.0 -28.220000000000002Q207.748 -28.220000000000002 208.309 -27.676000000000002Q208.87 -27.132 208.87 -26.35V-25.704Q208.87 -25.432000000000002 209.176 -25.432000000000002H220.872Q221.45 -25.432000000000002 221.875 -24.990000000000002Q222.3 -24.548000000000002 222.3 -23.970000000000002Q222.3 -23.392000000000003 221.875 -22.950000000000003Q221.45 -22.508000000000003 220.872 -22.508000000000003H216.486Q216.418 -22.508000000000003 216.38400000000001 -22.44Q216.35 -22.372 216.418 -22.338Q218.934 -20.060000000000002 220.94 -17.952Q221.416 -17.476000000000003 221.297 -16.813000000000002Q221.178 -16.150000000000002 220.6 -15.844000000000001Q219.92000000000002 -15.504000000000001 219.17200000000003 -15.623000000000001Q218.424 -15.742 217.914 -16.32Q217.812 -16.456 217.574 -16.711Q217.336 -16.966 217.2 -17.102Q217.03 -17.272000000000002 216.724 -17.272000000000002Q205.844 -16.286 194.114 -15.946000000000002Q193.536 -15.912 193.111 -16.32Q192.686 -16.728 192.652 -17.306Q192.618 -17.884 193.00900000000001 -18.292Q193.4 -18.700000000000003 193.978 -18.734Q196.698 -18.802 198.058 -18.87Q198.33 -18.87 198.5 -19.108Q199.724 -20.91 200.472 -22.236Q200.54 -22.304000000000002 200.48899999999998 -22.406000000000002Q200.438 -22.508000000000003 200.336 -22.508000000000003ZM211.964 -22.508000000000003H204.416Q204.212 -22.508000000000003 204.144 -22.202Q204.076 -21.896 203.94 -21.658L202.512 -19.312Q202.342 -19.074 202.614 -19.074Q209.04 -19.414 214.208 -19.822000000000003Q214.378 -19.822000000000003 214.31 -19.992Q214.276 -20.026 214.242 -20.060000000000002L212.61 -21.59Q212.338 -21.828000000000003 212.27 -22.202Q212.202 -22.508000000000003 211.964 -22.508000000000003Z" fill="#3B4A54" opacity="0.72"/>
<path transform="translate(231.0,138.0)" d="M243.322 -4.216 248.762 -9.656Q248.966 -9.860000000000001 248.762 -10.064L243.322 -15.504000000000001Q242.846 -15.98 242.846 -16.643Q242.846 -17.306 243.322 -17.782000000000004Q243.798 -18.258000000000003 244.461 -18.258000000000003Q245.124 -18.258000000000003 245.6 -17.782L251.04000000000002 -12.342Q251.244 -12.138000000000002 251.448 -12.342L256.88800000000003 -17.782Q257.398 -18.258000000000003 258.044 -18.258000000000003Q258.69 -18.258000000000003 259.166 -17.782000000000004Q259.642 -17.306 259.642 -16.643Q259.642 -15.98 259.166 -15.504000000000001L253.726 -10.064Q253.52200000000002 -9.860000000000001 253.726 -9.656L259.166 -4.216Q259.642 -3.74 259.642 -3.077Q259.642 -2.414 259.166 -1.9380000000000002Q258.69 -1.4620000000000002 258.044 -1.4620000000000002Q257.398 -1.4620000000000002 256.88800000000003 -1.9380000000000002L251.448 -7.378Q251.244 -7.582000000000001 251.04000000000002 -7.378L245.6 -1.9380000000000002Q245.124 -1.4620000000000002 244.461 -1.4620000000000002Q243.798 -1.4620000000000002 243.322 -1.9380000000000002Q242.846 -2.414 242.846 -3.077Q242.846 -3.74 243.322 -4.216Z" fill="#3B4A54" opacity="0.72"/>
<path transform="translate(231.0,138.0)" d="M284.064 0.0Q283.282 0.0 282.70399999999995 -0.5780000000000001Q282.126 -1.1560000000000001 282.126 -1.9380000000000002V-22.882Q282.126 -23.664 282.70399999999995 -24.242Q283.282 -24.82 284.064 -24.82H284.268Q285.05 -24.82 285.62800000000004 -24.242Q286.206 -23.664 286.206 -22.882V-1.9380000000000002Q286.206 -1.1560000000000001 285.62800000000004 -0.5780000000000001Q285.05 0.0 284.268 0.0Z" fill="#3B4A54" opacity="0.72"/>
<path transform="translate(231.0,138.0)" d="M306.492 0.34Q301.324 0.34 298.21299999999997 -2.9920000000000004Q295.102 -6.324000000000001 295.102 -12.41Q295.102 -18.428 298.111 -21.794Q301.12 -25.16 306.492 -25.16Q308.804 -25.16 310.70799999999997 -24.82Q311.388 -24.684 311.83 -24.123Q312.272 -23.562 312.272 -22.848000000000003Q312.272 -22.236 311.779 -21.879Q311.286 -21.522000000000002 310.70799999999997 -21.692Q309.11 -22.1 306.832 -22.1Q303.15999999999997 -22.1 301.03499999999997 -19.567Q298.90999999999997 -17.034000000000002 298.90999999999997 -12.410000000000002Q298.90999999999997 -7.7860000000000005 301.086 -5.253Q303.262 -2.72 306.832 -2.72Q309.076 -2.72 310.878 -3.1620000000000004Q311.456 -3.3320000000000003 311.949 -2.958Q312.442 -2.584 312.442 -1.9720000000000002Q312.442 -1.258 312.0 -0.6970000000000001Q311.558 -0.136 310.844 0.0Q308.838 0.34 306.492 0.34Z" fill="#3B4A54" opacity="0.72"/>
<path transform="translate(231.0,138.0)" d="M322.562 -21.692Q321.916 -21.692 321.457 -22.151000000000003Q320.998 -22.610000000000003 320.998 -23.256Q320.998 -23.902 321.457 -24.361Q321.916 -24.82 322.562 -24.82H337.11400000000003Q337.76 -24.82 338.219 -24.361Q338.678 -23.902 338.678 -23.256Q338.678 -22.610000000000003 338.219 -22.151000000000003Q337.76 -21.692 337.11400000000003 -21.692H332.014Q331.708 -21.692 331.708 -21.386000000000003V-1.87Q331.708 -1.088 331.164 -0.544Q330.62 0.0 329.83799999999997 0.0Q329.056 0.0 328.512 -0.544Q327.968 -1.088 327.968 -1.87V-21.386000000000003Q327.968 -21.692 327.662 -21.692Z" fill="#3B4A54" opacity="0.72"/>
<path transform="translate(231.0,138.0)" d="M389.654 -23.188000000000002Q390.334 -23.188000000000002 390.776 -22.746000000000002Q391.218 -22.304000000000002 391.218 -21.624000000000002V-21.454Q391.218 -20.876 390.81 -20.468000000000004Q390.402 -20.060000000000002 389.824 -20.060000000000002Q389.62 -20.060000000000002 389.62 -19.822000000000003Q388.702 -10.506 385.608 -5.678000000000001Q385.438 -5.44 385.642 -5.168Q387.24 -2.89 389.892 -1.02Q390.436 -0.6120000000000001 390.606 0.0Q390.776 0.6120000000000001 390.46999999999997 1.2240000000000002Q390.164 1.802 389.53499999999997 1.955Q388.906 2.108 388.36199999999997 1.7680000000000002Q385.472 -0.17 383.534 -2.584Q383.33 -2.822 383.126 -2.6180000000000003Q380.576 -0.10200000000000001 376.428 1.9380000000000002Q375.816 2.244 375.16999999999996 2.04Q374.524 1.836 374.15 1.258Q373.81 0.7140000000000001 373.98 0.11900000000000002Q374.15 -0.47600000000000003 374.728 -0.748Q379.012 -2.8560000000000003 381.358 -5.44Q381.528 -5.61 381.392 -5.916Q379.726 -9.214 378.74 -14.144000000000002Q378.706 -14.212000000000002 378.655 -14.229000000000001Q378.604 -14.246 378.57 -14.178Q378.4 -13.804 377.618 -12.342Q377.278 -11.764000000000001 376.615 -11.628Q375.952 -11.492 375.442 -11.934000000000001Q374.89799999999997 -12.41 374.779 -13.175Q374.65999999999997 -13.940000000000001 375.034 -14.586Q377.652 -19.448 379.38599999999997 -26.520000000000003Q379.522 -27.166 380.1 -27.557000000000002Q380.678 -27.948 381.358 -27.880000000000003Q382.004 -27.812 382.395 -27.285000000000004Q382.786 -26.758000000000003 382.65 -26.112000000000002Q382.31 -24.582 382.004 -23.494000000000003Q381.96999999999997 -23.392000000000003 382.05499999999995 -23.290000000000003Q382.14 -23.188000000000002 382.242 -23.188000000000002ZM383.806 -9.078000000000001Q385.676 -12.988000000000001 386.356 -19.788Q386.356 -20.060000000000002 386.118 -20.060000000000002H381.256Q380.984 -20.060000000000002 380.882 -19.788Q380.61 -18.938000000000002 380.202 -17.918000000000003Q380.134 -17.748 380.304 -17.748Q380.848 -17.816000000000003 381.28999999999996 -17.51Q381.73199999999997 -17.204 381.8 -16.66Q382.48 -12.002 383.568 -9.112Q383.602 -9.044 383.66999999999996 -9.027000000000001Q383.738 -9.01 383.806 -9.078000000000001ZM360.71999999999997 -16.048000000000002Q360.108 -16.048000000000002 359.683 -16.490000000000002Q359.258 -16.932000000000002 359.258 -17.544000000000004Q359.258 -18.156000000000002 359.683 -18.598000000000003Q360.108 -19.040000000000003 360.71999999999997 -19.040000000000003H364.902Q365.20799999999997 -19.040000000000003 365.20799999999997 -19.312V-22.406000000000002Q365.20799999999997 -22.712000000000003 364.902 -22.712000000000003H361.842Q361.264 -22.712000000000003 360.856 -23.120000000000005Q360.448 -23.528000000000002 360.448 -24.106Q360.448 -24.684 360.856 -25.092000000000002Q361.264 -25.500000000000004 361.842 -25.500000000000004H364.902Q365.20799999999997 -25.500000000000004 365.20799999999997 -25.806V-26.248Q365.20799999999997 -26.996000000000002 365.71799999999996 -27.523000000000003Q366.228 -28.05 366.976 -28.05Q367.724 -28.05 368.251 -27.523000000000003Q368.778 -26.996000000000002 368.778 -26.248V-25.806Q368.778 -25.500000000000004 369.05 -25.500000000000004H370.988Q371.77 -25.500000000000004 372.34799999999996 -24.922000000000004Q372.926 -24.344 372.926 -23.562Q372.926 -23.494000000000003 372.994 -23.477000000000004Q373.062 -23.46 373.096 -23.528000000000002Q373.64 -24.310000000000002 374.286 -25.500000000000004Q374.592 -26.078000000000003 375.20399999999995 -26.316000000000003Q375.816 -26.554000000000002 376.428 -26.316000000000003Q377.006 -26.078000000000003 377.227 -25.534000000000002Q377.448 -24.990000000000002 377.176 -24.412000000000003Q375.748 -21.658 373.912 -19.278000000000002Q373.742 -19.040000000000003 374.014 -19.040000000000003H374.49Q375.102 -19.040000000000003 375.544 -18.598000000000003Q375.986 -18.156000000000002 375.986 -17.544000000000004Q375.986 -16.932000000000002 375.544 -16.490000000000002Q375.102 -16.048000000000002 374.49 -16.048000000000002H371.396Q371.056 -16.048000000000002 370.88599999999997 -15.878000000000002Q369.526 -14.518 368.472 -13.634Q368.404 -13.600000000000001 368.438 -13.515Q368.472 -13.430000000000001 368.53999999999996 -13.430000000000001H373.23199999999997Q373.81 -13.430000000000001 374.21799999999996 -13.022000000000002Q374.626 -12.614 374.626 -12.036000000000001Q374.626 -10.574000000000002 373.674 -9.554Q372.78999999999996 -8.636000000000001 371.498 -7.514Q371.43 -7.48 371.464 -7.412000000000001Q371.498 -7.344 371.566 -7.344Q371.702 -7.344 375.782 -7.684Q376.326 -7.718000000000001 376.751 -7.361000000000001Q377.176 -7.0040000000000004 377.21 -6.426Q377.24399999999997 -5.848000000000001 376.836 -5.372000000000001Q376.428 -4.896000000000001 375.85 -4.862Q373.46999999999997 -4.658 370.784 -4.454000000000001Q370.478 -4.454000000000001 370.478 -4.114V-1.87Q370.478 1.122 369.798 1.8360000000000003Q369.118 2.5500000000000003 366.296 2.5500000000000003Q364.8 2.5500000000000003 363.746 2.482Q363.09999999999997 2.4480000000000004 362.67499999999995 1.9890000000000003Q362.25 1.53 362.216 0.8840000000000001Q362.182 0.272 362.624 -0.136Q363.066 -0.544 363.678 -0.51Q364.086 -0.51 364.76599999999996 -0.459Q365.44599999999997 -0.40800000000000003 365.718 -0.40800000000000003Q366.602 -0.40800000000000003 366.755 -0.6460000000000001Q366.908 -0.8840000000000001 366.908 -2.21V-3.91Q366.908 -4.182 366.63599999999997 -4.182Q364.73199999999997 -4.08 360.95799999999997 -3.9440000000000004Q360.346 -3.91 359.904 -4.318Q359.462 -4.726 359.428 -5.338Q359.394 -5.916 359.78499999999997 -6.3580000000000005Q360.176 -6.800000000000001 360.754 -6.8340000000000005Q364.63 -6.970000000000001 366.67 -7.072000000000001Q366.908 -7.072000000000001 366.908 -7.3100000000000005V-7.446000000000001Q366.908 -8.024000000000001 367.31600000000003 -8.432Q367.724 -8.84 368.302 -8.84Q368.574 -8.84 368.71 -8.976Q369.662 -9.690000000000001 370.478 -10.438Q370.64799999999997 -10.608 370.376 -10.608H364.664Q364.392 -10.608 364.154 -10.472000000000001Q362.998 -9.758000000000001 361.808 -9.146Q361.23 -8.874 360.669 -9.061Q360.108 -9.248000000000001 359.768 -9.792000000000002Q359.462 -10.302000000000001 359.615 -10.88Q359.768 -11.458 360.312 -11.73Q363.474 -13.464 366.296 -15.878000000000002Q366.364 -15.912 366.33 -15.98Q366.296 -16.048000000000002 366.228 -16.048000000000002ZM368.778 -22.406000000000002V-19.312Q368.778 -19.040000000000003 369.05 -19.040000000000003H369.288Q369.56 -19.040000000000003 369.764 -19.244Q371.226 -20.876 372.348 -22.474Q372.518 -22.712000000000003 372.246 -22.712000000000003H369.05Q368.778 -22.712000000000003 368.778 -22.406000000000002Z" fill="#3B4A54" opacity="0.72"/>
<path transform="translate(231.0,138.0)" d="M427.31399999999996 -22.78Q427.96 -22.78 428.419 -22.338Q428.878 -21.896 428.878 -21.216Q428.878 -20.536 428.419 -20.094Q427.96 -19.652 427.31399999999996 -19.652H426.26Q425.988 -19.652 425.988 -19.346V-2.108Q425.988 -0.8840000000000001 425.937 -0.17000000000000004Q425.88599999999997 0.544 425.682 1.1560000000000001Q425.478 1.7680000000000002 425.206 2.04Q424.93399999999997 2.3120000000000003 424.30499999999995 2.516Q423.676 2.72 422.945 2.771Q422.214 2.822 420.956 2.822Q420.276 2.822 416.74 2.6860000000000004Q416.06 2.652 415.601 2.176Q415.142 1.7000000000000002 415.108 1.054Q415.074 0.40800000000000003 415.51599999999996 -0.034Q415.95799999999997 -0.47600000000000003 416.604 -0.44200000000000006Q418.984 -0.34 420.378 -0.34Q421.806 -0.34 422.061 -0.5780000000000001Q422.316 -0.8160000000000001 422.316 -2.108V-15.164000000000001Q422.316 -15.232000000000001 422.265 -15.232000000000001Q422.214 -15.232000000000001 422.18 -15.164000000000001Q418.27 -8.126000000000001 411.81 -2.6860000000000004Q411.266 -2.244 410.569 -2.3120000000000003Q409.872 -2.3800000000000003 409.396 -2.9240000000000004Q408.954 -3.4680000000000004 409.005 -4.148000000000001Q409.056 -4.828 409.59999999999997 -5.304Q417.454 -11.934000000000001 420.956 -19.380000000000003Q421.092 -19.652 420.786 -19.652H412.932Q412.252 -19.652 411.81 -20.094Q411.368 -20.536 411.368 -21.216Q411.368 -21.896 411.81 -22.338Q412.252 -22.78 412.932 -22.78H422.044Q422.316 -22.78 422.316 -23.086000000000002V-25.704Q422.316 -26.452 422.86 -26.996000000000002Q423.404 -27.540000000000003 424.152 -27.540000000000003Q424.9 -27.540000000000003 425.44399999999996 -26.996000000000002Q425.988 -26.452 425.988 -25.704V-23.086000000000002Q425.988 -22.78 426.26 -22.78ZM407.254 -19.652Q407.152 -19.652 407.101 -19.567Q407.05 -19.482000000000003 407.118 -19.414Q408.988 -16.116 411.096 -12.172Q411.436 -11.526000000000002 411.29999999999995 -10.829Q411.164 -10.132000000000001 410.62 -9.690000000000001Q410.144 -9.316 409.515 -9.452000000000002Q408.88599999999997 -9.588000000000001 408.614 -10.132000000000001Q408.40999999999997 -10.574000000000002 406.404 -14.382000000000001Q406.37 -14.416 406.31899999999996 -14.416Q406.268 -14.416 406.268 -14.382000000000001V1.292Q406.268 2.04 405.758 2.55Q405.248 3.06 404.5 3.06Q403.752 3.06 403.225 2.55Q402.698 2.04 402.698 1.292V-11.458Q402.664 -11.492 402.596 -11.458Q401.202 -7.854000000000001 399.57 -5.372000000000001Q399.19599999999997 -4.828 398.567 -4.845000000000001Q397.938 -4.862 397.56399999999996 -5.372000000000001Q397.122 -5.984 397.08799999999997 -6.766Q397.054 -7.548000000000001 397.462 -8.194Q400.964 -13.770000000000001 402.392 -19.346Q402.46 -19.652 402.188 -19.652H399.332Q398.652 -19.652 398.21 -20.094Q397.768 -20.536 397.768 -21.216Q397.768 -21.896 398.21 -22.338Q398.652 -22.78 399.332 -22.78H402.392Q402.698 -22.78 402.698 -23.086000000000002V-25.772000000000002Q402.698 -26.520000000000003 403.225 -27.03Q403.752 -27.540000000000003 404.5 -27.540000000000003Q405.248 -27.540000000000003 405.758 -27.03Q406.268 -26.520000000000003 406.268 -25.772000000000002V-23.086000000000002Q406.268 -22.78 406.574 -22.78H408.444Q409.12399999999997 -22.78 409.566 -22.338Q410.008 -21.896 410.008 -21.216Q410.008 -20.536 409.566 -20.094Q409.12399999999997 -19.652 408.444 -19.652Z" fill="#3B4A54" opacity="0.72"/>
<path transform="translate(231.0,138.0)" d="M461.37 -22.576Q462.016 -21.930000000000003 462.93399999999997 -21.930000000000003Q463.852 -21.930000000000003 464.498 -22.576Q465.144 -23.222 465.144 -24.14Q465.144 -25.058000000000003 464.498 -25.704Q463.852 -26.35 462.93399999999997 -26.35Q462.016 -26.35 461.37 -25.704Q460.724 -25.058000000000003 460.724 -24.14Q460.724 -23.222 461.37 -22.576ZM462.93399999999997 -19.380000000000003Q462.69599999999997 -19.380000000000003 462.69599999999997 -19.142000000000003Q462.73 -18.768 462.69599999999997 -18.360000000000003Q461.71 -9.622 456.746 -4.862Q451.782 -0.10200000000000001 442.534 1.1560000000000001Q441.82 1.258 441.24199999999996 0.833Q440.664 0.40800000000000003 440.528 -0.30600000000000005Q440.392 -0.9520000000000001 440.817 -1.5130000000000001Q441.242 -2.0740000000000003 441.92199999999997 -2.176Q450.32 -3.366 454.43399999999997 -7.6160000000000005Q458.548 -11.866000000000001 459.092 -20.128Q459.092 -20.400000000000002 458.82 -20.400000000000002H438.964Q438.25 -20.400000000000002 437.757 -20.893Q437.264 -21.386000000000003 437.264 -22.1Q437.264 -22.814 437.757 -23.307000000000002Q438.25 -23.8 438.964 -23.8H457.596H457.902Q458.174 -23.8 458.174 -24.038V-24.14Q458.174 -26.112000000000002 459.568 -27.506Q460.962 -28.900000000000002 462.93399999999997 -28.900000000000002Q464.906 -28.900000000000002 466.3 -27.506Q467.694 -26.112000000000002 467.694 -24.14Q467.694 -22.168000000000003 466.3 -20.774Q464.906 -19.380000000000003 462.93399999999997 -19.380000000000003Z" fill="#3B4A54" opacity="0.72"/>
<path transform="translate(231.0,138.0)" d="M477.202 -12.988000000000001Q476.556 -12.988000000000001 476.08 -13.464000000000002Q475.604 -13.940000000000001 475.604 -14.620000000000001Q475.604 -15.3 476.08 -15.776000000000002Q476.556 -16.252000000000002 477.202 -16.252000000000002H500.186Q501.002 -16.252000000000002 501.563 -15.674000000000003Q502.124 -15.096000000000002 502.09 -14.280000000000001Q501.308 -0.34 482.608 1.3940000000000001Q481.928 1.4280000000000002 481.384 1.0030000000000001Q480.84 0.5780000000000001 480.704 -0.10200000000000001Q480.602 -0.782 481.01 -1.292Q481.418 -1.802 482.06399999999996 -1.836Q496.582 -3.1620000000000004 498.248 -12.750000000000002Q498.282 -12.852 498.17999999999995 -12.920000000000002Q498.078 -12.988000000000001 497.976 -12.988000000000001ZM479.786 -24.990000000000002H498.282Q498.962 -24.990000000000002 499.438 -24.514000000000003Q499.914 -24.038 499.914 -23.392000000000003Q499.914 -22.712000000000003 499.438 -22.236000000000004Q498.962 -21.76 498.282 -21.76H479.786Q479.106 -21.76 478.63 -22.236000000000004Q478.154 -22.712000000000003 478.154 -23.392000000000003Q478.154 -24.038 478.63 -24.514000000000003Q479.106 -24.990000000000002 479.786 -24.990000000000002Z" fill="#3B4A54" opacity="0.72"/>
<path transform="translate(231.0,138.0)" d="M536.52 -19.55Q537.234 -19.516000000000002 537.71 -19.006Q538.186 -18.496000000000002 538.152 -17.782Q537.71 -8.704 534.0889999999999 -4.437Q530.468 -0.17 522.342 1.088Q521.696 1.1900000000000002 521.169 0.8160000000000001Q520.6419999999999 0.44200000000000006 520.472 -0.23800000000000002Q520.336 -0.8840000000000001 520.71 -1.411Q521.084 -1.9380000000000002 521.73 -2.04Q528.6659999999999 -3.2300000000000004 531.539 -6.681000000000001Q534.412 -10.132000000000001 534.786 -17.952Q534.8199999999999 -18.632 535.3299999999999 -19.108000000000004Q535.84 -19.584000000000003 536.52 -19.55ZM518.024 -10.676Q517.174 -14.076 516.494 -16.524Q516.324 -17.17 516.664 -17.731Q517.004 -18.292 517.684 -18.462Q518.364 -18.598000000000003 518.9590000000001 -18.241Q519.554 -17.884 519.758 -17.204Q520.71 -13.872000000000002 521.322 -11.39Q521.492 -10.744000000000002 521.1179999999999 -10.149000000000001Q520.744 -9.554 520.064 -9.384Q519.384 -9.248000000000001 518.789 -9.622Q518.194 -9.996 518.024 -10.676ZM525.47 -11.288Q524.586 -14.790000000000001 523.872 -17.408Q523.702 -18.054000000000002 524.059 -18.632Q524.4159999999999 -19.21 525.096 -19.380000000000003Q525.776 -19.55 526.405 -19.159Q527.034 -18.768 527.204 -18.088Q528.36 -13.702000000000002 528.768 -12.036000000000001Q528.938 -11.356000000000002 528.581 -10.778000000000002Q528.224 -10.200000000000001 527.5440000000001 -10.030000000000001Q526.864 -9.860000000000001 526.252 -10.234000000000002Q525.64 -10.608 525.47 -11.288Z" fill="#3B4A54" opacity="0.72"/>
<path transform="translate(231.0,138.0)" d="M556.194 -0.17V-24.310000000000002Q556.194 -25.092000000000002 556.738 -25.636000000000003Q557.282 -26.180000000000003 558.0640000000001 -26.180000000000003Q558.846 -26.180000000000003 559.39 -25.636000000000003Q559.934 -25.092000000000002 559.934 -24.310000000000002V-16.728Q559.934 -16.422 560.172 -16.388Q568.672 -14.314000000000002 577.036 -11.322000000000001Q577.716 -11.084000000000001 578.039 -10.404Q578.362 -9.724 578.124 -9.01Q577.886 -8.33 577.223 -8.007Q576.56 -7.684 575.88 -7.922000000000001Q568.06 -10.744000000000002 560.206 -12.716000000000001Q559.934 -12.784 559.934 -12.512V-0.17Q559.934 0.6120000000000001 559.39 1.1560000000000001Q558.846 1.7000000000000002 558.0640000000001 1.7000000000000002Q557.282 1.7000000000000002 556.738 1.1560000000000001Q556.194 0.6120000000000001 556.194 -0.17Z" fill="#3B4A54" opacity="0.72"/>
<path transform="translate(231.0,138.0)" d="M591.984 -20.740000000000002Q591.27 -20.740000000000002 590.777 -21.233000000000004Q590.284 -21.726000000000003 590.284 -22.44Q590.284 -23.154 590.777 -23.647Q591.27 -24.14 591.984 -24.14H614.016Q614.798 -24.14 615.393 -23.562Q615.9879999999999 -22.984 615.954 -22.202Q615.682 -11.73 610.684 -6.154Q605.686 -0.5780000000000001 595.554 0.8160000000000001Q594.84 0.918 594.262 0.493Q593.684 0.068 593.548 -0.646Q593.412 -1.292 593.837 -1.8530000000000002Q594.262 -2.414 594.942 -2.516Q603.34 -3.7060000000000004 607.454 -7.956000000000001Q611.568 -12.206000000000001 612.112 -20.468Q612.112 -20.740000000000002 611.84 -20.740000000000002Z" fill="#3B4A54" opacity="0.72"/>
<path transform="translate(231.0,138.0)" d="M631.582 -14.382000000000001Q630.97 -14.382000000000001 630.528 -14.824000000000002Q630.086 -15.266000000000002 630.086 -15.878000000000002Q630.086 -16.490000000000002 630.528 -16.915Q630.97 -17.34 631.582 -17.34H643.312Q643.584 -17.34 643.584 -17.646V-19.822000000000003Q643.584 -20.502000000000002 644.077 -20.978Q644.5699999999999 -21.454 645.25 -21.454Q645.93 -21.454 646.406 -20.978Q646.882 -20.502000000000002 646.882 -19.822000000000003V-17.646Q646.882 -17.34 647.188 -17.34H651.03Q651.6419999999999 -17.34 652.084 -16.915Q652.526 -16.490000000000002 652.526 -15.878000000000002Q652.526 -15.266000000000002 652.084 -14.824000000000002Q651.6419999999999 -14.382000000000001 651.03 -14.382000000000001H647.188Q646.882 -14.382000000000001 646.882 -14.110000000000001V-3.2640000000000002Q646.882 -0.374 646.1679999999999 0.323Q645.454 1.02 642.598 1.02Q641.136 1.02 639.538 0.8840000000000001Q638.926 0.8160000000000001 638.518 0.34Q638.11 -0.136 638.144 -0.748Q638.212 -1.36 638.671 -1.7510000000000003Q639.13 -2.1420000000000003 639.742 -2.108Q641.204 -1.9720000000000002 642.258 -1.9720000000000002Q643.1419999999999 -1.9720000000000002 643.3629999999999 -2.193Q643.584 -2.414 643.584 -3.298V-10.812000000000001Q643.584 -10.88 643.499 -10.914000000000001Q643.414 -10.948 643.38 -10.88Q638.45 -6.222 632.942 -2.822Q632.398 -2.482 631.769 -2.652Q631.14 -2.822 630.834 -3.366Q630.528 -3.9440000000000004 630.698 -4.539000000000001Q630.8679999999999 -5.134 631.412 -5.474Q637.26 -9.01 642.462 -14.178Q642.53 -14.212000000000002 642.496 -14.297Q642.462 -14.382000000000001 642.394 -14.382000000000001Z" fill="#3B4A54" opacity="0.72"/>
<path transform="translate(231.0,138.0)" d="M666.862 -10.472000000000001Q666.114 -10.472000000000001 665.604 -10.982000000000001Q665.0939999999999 -11.492 665.0939999999999 -12.240000000000002Q665.0939999999999 -12.988000000000001 665.604 -13.498000000000001Q666.114 -14.008000000000001 666.862 -14.008000000000001H691.206Q691.954 -14.008000000000001 692.4639999999999 -13.498000000000001Q692.974 -12.988000000000001 692.974 -12.240000000000002Q692.974 -11.492 692.4639999999999 -10.982000000000001Q691.954 -10.472000000000001 691.206 -10.472000000000001Z" fill="#3B4A54" opacity="0.72"/>
<path transform="translate(231.0,138.0)" d="M704.114 0.10200000000000001Q703.468 0.136 702.992 -0.306Q702.516 -0.748 702.482 -1.428Q702.448 -2.108 702.924 -2.601Q703.4 -3.0940000000000003 704.046 -3.128Q704.59 -3.1620000000000004 705.746 -3.2300000000000004Q706.018 -3.2300000000000004 706.086 -3.5360000000000005Q706.12 -3.604 706.154 -3.672Q706.188 -3.74 706.188 -3.8080000000000003Q709.724 -13.124 712.376 -24.038Q712.546 -24.82 713.226 -25.245Q713.906 -25.67 714.654 -25.534000000000002Q715.402 -25.398000000000003 715.81 -24.769000000000002Q716.218 -24.14 716.048 -23.392000000000003Q713.668 -13.464 710.098 -3.8080000000000003Q710.03 -3.5360000000000005 710.268 -3.5360000000000005Q718.02 -4.114 725.534 -5.236000000000001Q725.806 -5.304 725.67 -5.542000000000001Q724.684 -7.65 722.576 -11.934000000000001Q722.236 -12.614 722.4739999999999 -13.311Q722.712 -14.008000000000001 723.3919999999999 -14.314000000000002Q724.072 -14.654000000000002 724.803 -14.382000000000001Q725.534 -14.110000000000001 725.874 -13.430000000000001Q728.628 -7.922000000000001 731.348 -1.9720000000000002Q731.654 -1.292 731.365 -0.595Q731.076 0.10200000000000001 730.396 0.374Q729.682 0.68 728.985 0.391Q728.288 0.10200000000000001 727.982 -0.6120000000000001Q727.88 -0.8160000000000001 727.659 -1.258Q727.438 -1.7000000000000002 727.336 -1.9380000000000002Q727.234 -2.244 726.928 -2.176Q714.858 -0.34 704.114 0.10200000000000001Z" fill="#3B4A54" opacity="0.72"/>
<g transform="translate(169.0,215)">
<rect x="0" y="0" width="89.78" height="89.78" rx="26.93" fill="#00A99D"/>
<circle cx="44.89" cy="44.89" r="23.34" fill="#FFFFFF"/>
<rect x="100.22500000000001" y="0" width="89.78" height="89.78" rx="26.93" fill="#F5A623"/>
<path d="M 145.11 20.65 L 119.66 64.28 L 170.56 64.28 Z" fill="#FFFFFF" stroke="#FFFFFF" stroke-width="8.98" stroke-linejoin="round"/>
<rect x="0" y="100.22500000000001" width="89.78" height="89.78" rx="26.93" fill="#4A8FD9"/>
<rect x="24.24" y="124.46" width="41.30" height="41.30" rx="9.09" fill="#FFFFFF"/>
<rect x="100.22500000000001" y="100.22500000000001" width="89.78" height="89.78" rx="26.93" fill="#EE6C7C"/>
<g transform="translate(117.28,116.82) scale(2.3192)"><path d="M12 21.35l-1.45-1.32C5.4 15.36 2 12.28 2 8.5 2 5.42 4.42 3 7.5 3c1.74 0 3.41.81 4.5 2.09C13.09 3.81 14.76 3 16.5 3 19.58 3 22 5.42 22 8.5c0 3.78-3.4 6.86-8.55 11.54L12 21.35z" fill="#FFFFFF"/></g>
</g>
<path transform="translate(415.0,364.0)" d="M96.3 -118.35Q99.45 -120.0 102.9 -118.94999999999999Q106.35 -117.89999999999999 108.0 -114.75Q109.64999999999999 -111.75 112.95 -105.45Q114.45 -102.3 113.25 -99.0Q112.05 -95.7 108.89999999999999 -94.2Q105.6 -92.7 102.3 -93.9Q99.0 -95.1 97.35 -98.25Q96.6 -99.6 92.55 -107.1Q90.89999999999999 -110.1 91.94999999999999 -113.39999999999999Q93.0 -116.69999999999999 96.14999999999999 -118.35ZM132.0 -120.14999999999999Q136.95 -110.7 137.1 -110.39999999999999Q138.75 -107.25 137.625 -103.94999999999999Q136.5 -100.64999999999999 133.35 -99.14999999999999L132.9 -98.85Q129.75 -97.35 126.375 -98.475Q123.0 -99.6 121.35 -102.75Q120.6 -104.25 118.94999999999999 -107.4Q117.3 -110.55 116.39999999999999 -112.05Q114.75 -115.05 115.725 -118.5Q116.69999999999999 -121.94999999999999 119.85 -123.44999999999999L120.3 -123.6Q123.44999999999999 -125.25 126.89999999999999 -124.275Q130.35 -123.3 132.0 -120.14999999999999ZM124.05 -11.1 124.94999999999999 -2.4Q125.39999999999999 1.2 123.29999999999998 3.975Q121.19999999999999 6.75 117.6 7.35Q96.6 10.5 72.0 10.5Q43.199999999999996 10.5 29.849999999999998 1.0499999999999998Q16.5 -8.4 16.5 -27.0Q16.5 -46.05 38.55 -59.55Q39.6 -60.3 39.15 -61.349999999999994Q38.85 -61.8 38.55 -63.0Q34.199999999999996 -81.3 30.0 -104.25Q29.4 -107.7 31.424999999999997 -110.475Q33.449999999999996 -113.25 36.9 -113.85L49.35 -115.64999999999999Q52.8 -116.25 55.65 -114.15Q58.5 -112.05 59.25 -108.6Q62.699999999999996 -90.0 66.75 -73.5Q66.89999999999999 -72.6 68.1 -72.89999999999999Q85.64999999999999 -79.2 111.75 -85.2Q115.05 -85.95 117.975 -84.0Q120.89999999999999 -82.05 121.64999999999999 -78.6L123.6 -69.89999999999999Q124.35 -66.45 122.39999999999999 -63.45Q120.44999999999999 -60.449999999999996 117.0 -59.699999999999996Q89.25 -53.25 73.125 -47.4Q57.0 -41.55 51.75 -36.9Q46.5 -32.25 46.5 -27.0Q46.5 -20.849999999999998 52.349999999999994 -17.924999999999997Q58.199999999999996 -15.0 72.0 -15.0Q92.7 -15.0 114.6 -18.15Q118.05 -18.75 120.82499999999999 -16.65Q123.6 -14.549999999999999 124.05 -11.1Z" fill="#3B4A54"/>
<path transform="translate(415.0,364.0)" d="M217.0 -84.6Q217.15 -85.05 216.775 -85.425Q216.4 -85.8 215.95 -85.64999999999999Q202.9 -81.3 195.7 -71.1Q188.5 -60.9 188.5 -46.5Q188.5 -37.949999999999996 191.8 -30.224999999999998Q195.1 -22.5 197.5 -22.5Q199.9 -22.5 202.9 -28.125Q205.9 -33.75 209.72500000000002 -48.375Q213.55 -63.0 217.0 -84.6ZM235.0 -114.0Q261.55 -114.0 279.025 -97.125Q296.5 -80.25 296.5 -54.0Q296.5 -29.4 285.025 -13.649999999999999Q273.55 2.1 253.75 6.3Q250.3 7.05 247.3 4.95Q244.3 2.85 243.55 -0.75L241.45 -9.75Q240.7 -13.049999999999999 242.575 -15.899999999999999Q244.45 -18.75 247.75 -19.95Q269.5 -27.3 269.5 -54.0Q269.5 -65.85 263.35 -74.55Q257.2 -83.25 246.85 -86.7Q245.64999999999998 -87.14999999999999 245.35 -85.8Q241.3 -58.5 236.35 -40.5Q231.39999999999998 -22.5 225.25 -12.75Q219.1 -3.0 212.64999999999998 0.75Q206.2 4.5 197.5 4.5Q184.15 4.5 172.825 -10.424999999999999Q161.5 -25.349999999999998 161.5 -46.5Q161.5 -76.5 181.75 -95.25Q202.0 -114.0 235.0 -114.0Z" fill="#3B4A54"/>
<path transform="translate(415.0,364.0)" d="M366.5 -13.5Q374.15 -13.5 376.775 -15.15Q379.4 -16.8 379.85 -22.349999999999998Q379.85 -23.7 378.95 -23.849999999999998Q373.55 -25.5 369.5 -25.5Q357.5 -25.5 357.5 -19.5Q357.5 -13.5 366.5 -13.5ZM434.45 -108.0Q437.9 -108.0 440.45 -105.44999999999999Q443.0 -102.89999999999999 443.0 -99.45V-92.55Q443.0 -89.1 440.45 -86.55Q437.9 -84.0 434.45 -84.0H408.35Q407.0 -84.0 407.0 -82.64999999999999V-79.2Q407.0 -78.0 408.35 -78.0H428.45Q431.9 -78.0 434.45 -75.44999999999999Q437.0 -72.89999999999999 437.0 -69.45V-63.3Q437.0 -59.849999999999994 434.45 -57.3Q431.9 -54.75 428.45 -54.75H408.35Q407.0 -54.75 407.0 -53.4V-37.8Q407.0 -36.449999999999996 408.2 -35.699999999999996Q420.65 -27.9 433.7 -16.2Q436.25 -13.799999999999999 436.475 -10.274999999999999Q436.7 -6.75 434.3 -4.2L429.2 1.2Q426.8 3.75 423.35 3.975Q419.9 4.2 417.35 1.7999999999999998Q411.65 -3.4499999999999997 405.8 -8.1Q404.9 -9.0 404.15 -7.6499999999999995Q400.55 1.95 391.4 6.225Q382.25 10.5 366.5 10.5Q349.55 10.5 340.025 2.625Q330.5 -5.25 330.5 -19.5Q330.5 -33.3 339.8 -41.025Q349.1 -48.75 366.5 -48.75Q373.1 -48.75 378.8 -47.699999999999996Q380.0 -47.4 380.0 -48.75V-53.4Q380.0 -54.75 378.8 -54.75H337.55Q334.1 -54.75 331.55 -57.3Q329.0 -59.849999999999994 329.0 -63.3V-69.45Q329.0 -72.89999999999999 331.55 -75.44999999999999Q334.1 -78.0 337.55 -78.0H378.8Q380.0 -78.0 380.0 -79.2V-82.64999999999999Q380.0 -84.0 378.8 -84.0H331.55Q328.1 -84.0 325.55 -86.55Q323.0 -89.1 323.0 -92.55V-99.45Q323.0 -102.89999999999999 325.55 -105.44999999999999Q328.1 -108.0 331.55 -108.0H378.8Q380.0 -108.0 380.0 -109.35V-111.45Q380.0 -114.89999999999999 382.55 -117.44999999999999Q385.1 -120.0 388.55 -120.0H398.45Q401.9 -120.0 404.45 -117.44999999999999Q407.0 -114.89999999999999 407.0 -111.45V-109.35Q407.0 -108.0 408.35 -108.0Z" fill="#3B4A54"/>
<path transform="translate(415.0,364.0)" d="M544.05 -12.0Q549.9 -12.0 552.15 -14.775Q554.4 -17.55 554.55 -25.65Q554.55 -27.15 553.35 -27.599999999999998Q548.7 -30.0 544.05 -30.0Q538.2 -30.0 535.125 -27.525Q532.05 -25.05 532.05 -21.0Q532.05 -16.8 535.2 -14.4Q538.35 -12.0 544.05 -12.0ZM597.0 -101.55Q600.45 -101.25 602.7 -98.4Q604.95 -95.55 604.5 -92.1L603.6 -84.89999999999999Q603.15 -81.45 600.375 -79.35Q597.6 -77.25 594.15 -77.7Q586.95 -78.6 582.9 -78.75Q581.55 -78.75 581.55 -77.39999999999999V-38.699999999999996Q581.55 -37.35 582.75 -36.6Q590.55 -30.75 600.9 -21.0Q603.45 -18.45 603.6 -14.925Q603.75 -11.4 601.35 -8.7L596.25 -3.3Q593.85 -0.75 590.4000000000001 -0.525Q586.95 -0.3 584.4 -2.6999999999999997Q583.5 -3.4499999999999997 581.775 -4.95Q580.05 -6.45 579.45 -7.05Q578.55 -7.949999999999999 577.95 -6.8999999999999995Q569.85 10.5 544.05 10.5Q525.6 10.5 515.325 2.025Q505.05 -6.45 505.05 -21.0Q505.05 -35.25 515.175 -43.875Q525.3 -52.5 544.05 -52.5Q548.85 -52.5 553.2 -51.449999999999996Q554.55 -51.15 554.55 -52.35V-94.95Q554.55 -98.39999999999999 557.0999999999999 -100.94999999999999Q559.65 -103.5 563.1 -103.35Q581.55 -103.05 597.0 -101.55ZM535.5 -79.5H517.65Q516.3 -79.5 516.0 -78.14999999999999Q507.15 -43.35 496.05 -13.2Q494.85 -9.9 491.625 -8.325Q488.4 -6.75 484.95 -7.949999999999999L476.4 -10.799999999999999Q473.1 -12.0 471.6 -15.075Q470.1 -18.15 471.15 -21.45Q482.1 -51.9 489.15 -78.3Q489.45 -79.5 488.1 -79.5H480.6Q477.15 -79.5 474.6 -82.05Q472.05 -84.6 472.05 -88.05V-94.95Q472.05 -98.39999999999999 474.6 -100.94999999999999Q477.15 -103.5 480.6 -103.5H494.25Q495.45 -103.5 495.75 -104.7Q497.25 -111.3 498.0 -114.75Q498.75 -118.19999999999999 501.675 -120.29999999999998Q504.6 -122.39999999999999 508.2 -121.94999999999999L516.9 -121.05Q520.35 -120.6 522.3 -117.75Q524.25 -114.89999999999999 523.65 -111.6Q523.35 -110.39999999999999 522.9000000000001 -108.14999999999999Q522.45 -105.89999999999999 522.1500000000001 -104.69999999999999Q521.85 -103.5 523.2 -103.5H535.5Q538.95 -103.5 541.5 -100.94999999999999Q544.05 -98.39999999999999 544.05 -94.95V-88.05Q544.05 -84.6 541.5 -82.05Q538.95 -79.5 535.5 -79.5Z" fill="#3B4A54"/>
<path transform="translate(339.0,468.0)" d="M33.384 -40.507999999999996Q34.476 -41.08 35.672 -40.715999999999994Q36.867999999999995 -40.352 37.44 -39.26Q38.012 -38.22 39.156 -36.036Q39.675999999999995 -34.943999999999996 39.26 -33.8Q38.844 -32.656 37.751999999999995 -32.135999999999996Q36.608 -31.616 35.464 -32.032Q34.32 -32.448 33.748 -33.54Q33.488 -34.007999999999996 32.083999999999996 -36.608Q31.511999999999997 -37.647999999999996 31.875999999999998 -38.792Q32.24 -39.936 33.332 -40.507999999999996ZM41.704 -42.327999999999996Q42.796 -42.9 43.992 -42.562Q45.187999999999995 -42.224 45.76 -41.132Q47.476 -37.856 47.528 -37.751999999999995Q48.099999999999994 -36.66 47.709999999999994 -35.516Q47.32 -34.372 46.227999999999994 -33.852L46.071999999999996 -33.748Q44.98 -33.228 43.81 -33.617999999999995Q42.64 -34.007999999999996 42.068 -35.1Q41.808 -35.62 41.236000000000004 -36.711999999999996Q40.664 -37.803999999999995 40.352 -38.324Q39.78 -39.364 40.117999999999995 -40.56Q40.455999999999996 -41.756 41.547999999999995 -42.275999999999996ZM25.636 3.1199999999999997Q6.239999999999999 3.1199999999999997 6.239999999999999 -8.996Q6.239999999999999 -15.86 15.027999999999999 -20.695999999999998Q15.443999999999999 -20.904 15.132 -21.215999999999998Q14.716 -21.736 14.559999999999999 -22.412Q12.584 -30.784 11.596 -36.348Q11.388 -37.544 12.09 -38.55799999999999Q12.792 -39.571999999999996 13.988 -39.78L15.287999999999998 -39.988Q16.483999999999998 -40.196 17.472 -39.467999999999996Q18.46 -38.739999999999995 18.72 -37.544Q20.072 -30.212 21.58 -24.232Q21.631999999999998 -24.076 21.787999999999997 -23.972Q21.944 -23.868 22.099999999999998 -23.919999999999998Q28.599999999999998 -26.416 38.635999999999996 -28.808Q39.832 -29.067999999999998 40.897999999999996 -28.418Q41.964 -27.767999999999997 42.172 -26.572L42.275999999999996 -26.104Q42.483999999999995 -24.907999999999998 41.86 -23.868Q41.236 -22.828 40.04 -22.567999999999998Q30.107999999999997 -20.227999999999998 24.153999999999996 -17.939999999999998Q18.2 -15.652 15.86 -13.546Q13.52 -11.44 13.52 -8.996Q13.52 -6.032 16.432 -4.576Q19.343999999999998 -3.1199999999999997 25.636 -3.1199999999999997Q32.552 -3.1199999999999997 39.519999999999996 -4.056Q40.716 -4.212 41.678 -3.484Q42.64 -2.756 42.796 -1.5599999999999998L42.848 -1.196Q43.004 0.0 42.25 1.014Q41.495999999999995 2.028 40.3 2.1839999999999997Q33.696 3.1199999999999997 25.636 3.1199999999999997Z" fill="#3B4A54"/>
<path transform="translate(339.0,468.0)" d="M80.932 -31.875999999999998Q74.848 -30.575999999999997 71.364 -26.337999999999997Q67.88 -22.099999999999998 67.88 -15.963999999999999Q67.88 -12.011999999999999 69.49199999999999 -8.943999999999999Q71.104 -5.8759999999999994 72.56 -5.8759999999999994Q73.288 -5.8759999999999994 74.068 -6.577999999999999Q74.848 -7.279999999999999 75.81 -9.126Q76.77199999999999 -10.972 77.68199999999999 -13.753999999999998Q78.592 -16.535999999999998 79.554 -21.137999999999998Q80.51599999999999 -25.74 81.29599999999999 -31.511999999999997Q81.348 -31.668 81.21799999999999 -31.798Q81.088 -31.927999999999997 80.932 -31.875999999999998ZM72.56 0.6759999999999999Q68.348 0.6759999999999999 64.812 -4.16Q61.275999999999996 -8.996 61.275999999999996 -15.963999999999999Q61.275999999999996 -26.052 68.13999999999999 -32.343999999999994Q75.00399999999999 -38.635999999999996 86.08 -38.635999999999996Q95.024 -38.635999999999996 100.874 -33.019999999999996Q106.72399999999999 -27.404 106.72399999999999 -18.72Q106.72399999999999 -10.556 102.954 -5.278Q99.184 0.0 92.632 1.456Q91.384 1.716 90.37 0.988Q89.356 0.26 89.096 -0.988L88.99199999999999 -1.456Q88.732 -2.6 89.408 -3.588Q90.084 -4.576 91.22800000000001 -4.9399999999999995Q100.12 -7.696 100.12 -18.72Q100.12 -24.023999999999997 96.974 -27.689999999999998Q93.828 -31.355999999999998 88.732 -32.187999999999995Q88.264 -32.292 88.16 -31.823999999999998Q87.12 -23.971999999999998 85.82 -18.174Q84.52 -12.376 83.09 -8.814Q81.66 -5.252 79.892 -3.094Q78.124 -0.9359999999999999 76.408 -0.13Q74.69200000000001 0.6759999999999999 72.56 0.6759999999999999Z" fill="#3B4A54"/>
<path transform="translate(339.0,468.0)" d="M121.044 -15.235999999999999Q119.848 -15.235999999999999 118.964 -16.119999999999997Q118.08 -17.003999999999998 118.08 -18.2V-18.355999999999998Q118.08 -19.552 118.964 -20.436Q119.848 -21.32 121.044 -21.32H138.88Q139.296 -21.32 139.296 -21.788V-24.336Q139.296 -26.208 140.96 -26.988Q141.22 -27.092 141.636 -27.508Q141.948 -27.82 142.156 -27.976Q146.836 -31.043999999999997 151.048 -34.476Q151.152 -34.528 151.1 -34.632Q151.048 -34.736 150.944 -34.736H127.804Q126.608 -34.736 125.724 -35.62Q124.84 -36.504 124.84 -37.7Q124.84 -38.896 125.724 -39.78Q126.608 -40.664 127.804 -40.664H157.07999999999998Q158.276 -40.664 159.16 -39.78Q160.04399999999998 -38.896 160.04399999999998 -37.699999999999996Q160.04399999999998 -34.736 157.808 -32.76Q152.66 -28.235999999999997 146.784 -24.284Q146.42 -24.023999999999997 146.42 -23.608V-21.788Q146.42 -21.32 146.888 -21.32H162.956Q164.152 -21.32 165.036 -20.436Q165.92 -19.552 165.92 -18.355999999999998V-18.2Q165.92 -17.003999999999998 165.036 -16.119999999999997Q164.152 -15.235999999999999 162.956 -15.235999999999999H146.888Q146.42 -15.235999999999999 146.42 -14.819999999999999V-4.784Q146.42 -1.6119999999999999 146.238 -0.13Q146.05599999999998 1.3519999999999999 145.094 2.3659999999999997Q144.132 3.38 142.702 3.562Q141.272 3.7439999999999998 138.256 3.7439999999999998Q136.28 3.7439999999999998 132.588 3.5879999999999996Q131.34 3.536 130.482 2.652Q129.624 1.768 129.52 0.52Q129.468 -0.6759999999999999 130.3 -1.508Q131.132 -2.34 132.328 -2.288Q134.46 -2.1839999999999997 136.956 -2.1839999999999997Q138.672 -2.1839999999999997 138.98399999999998 -2.4959999999999996Q139.296 -2.808 139.296 -4.576V-14.819999999999999Q139.296 -15.235999999999999 138.88 -15.235999999999999Z" fill="#3B4A54"/>
<path transform="translate(339.0,468.0)" d="M181.644 -17.16Q180.448 -17.16 179.56400000000002 -18.044Q178.68 -18.928 178.68 -20.124000000000002Q178.68 -21.32 179.56400000000002 -22.177999999999997Q180.448 -23.035999999999998 181.644 -23.035999999999998H189.704Q190.172 -23.035999999999998 190.172 -23.503999999999998Q190.328 -26.259999999999998 190.484 -29.016Q190.484 -29.483999999999998 190.06799999999998 -29.483999999999998H182.996Q181.8 -29.483999999999998 180.942 -30.342Q180.084 -31.2 180.084 -32.396Q180.084 -33.592 180.942 -34.476Q181.8 -35.36 182.996 -35.36H190.432Q190.9 -35.36 190.9 -35.775999999999996Q190.952 -36.244 191.00400000000002 -37.153999999999996Q191.056 -38.064 191.108 -38.532Q191.16 -39.728 192.122 -40.56Q193.084 -41.391999999999996 194.28 -41.339999999999996H195.32Q196.516 -41.288 197.322 -40.403999999999996Q198.128 -39.519999999999996 198.024 -38.324L197.868 -35.827999999999996Q197.868 -35.36 198.284 -35.36H213.364Q214.56 -35.36 215.418 -34.476Q216.276 -33.592 216.276 -32.396Q216.276 -31.2 215.418 -30.342Q214.56 -29.483999999999998 213.364 -29.483999999999998H197.868Q197.4 -29.483999999999998 197.4 -29.067999999999998Q197.296 -26.624 197.088 -23.503999999999998Q197.088 -23.035999999999998 197.55599999999998 -23.035999999999998H209.724Q210.92000000000002 -23.035999999999998 211.77800000000002 -22.177999999999997Q212.636 -21.32 212.636 -20.124000000000002Q212.636 -18.928 211.77800000000002 -18.044Q210.92000000000002 -17.16 209.724 -17.16H197.296Q196.828 -17.16 196.828 -16.692Q196.724 -12.219999999999999 196.724 -10.92Q196.724 -5.9799999999999995 198.232 -4.55Q199.74 -3.1199999999999997 205.04399999999998 -3.1199999999999997Q210.816 -3.1199999999999997 213.026 -4.576Q215.236 -6.032 215.236 -9.516Q215.236 -9.879999999999999 215.132 -10.92Q214.976 -12.168 215.626 -13.181999999999999Q216.276 -14.196 217.42 -14.456L218.096 -14.612Q219.292 -14.872 220.30599999999998 -14.196Q221.32 -13.52 221.528 -12.324Q221.84 -10.4 221.84 -8.996Q221.84 -2.808 217.784 0.15599999999999992Q213.728 3.1199999999999997 205.04399999999998 3.1199999999999997Q196.308 3.1199999999999997 193.03199999999998 0.1299999999999999Q189.756 -2.86 189.756 -10.92Q189.756 -12.219999999999999 189.86 -16.692Q189.86 -17.16 189.444 -17.16Z" fill="#3B4A54"/>
<path transform="translate(339.0,468.0)" d="M242.816 1.6119999999999999Q240.268 -1.508 236.992 -5.148Q236.16 -6.032 236.238 -7.254Q236.316 -8.475999999999999 237.252 -9.256L237.876 -9.776Q238.812 -10.556 240.008 -10.504Q241.204 -10.452 242.036 -9.516Q244.74 -6.4479999999999995 248.224 -2.34Q249.004 -1.404 248.848 -0.23399999999999999Q248.692 0.9359999999999999 247.704 1.664L247.08 2.1839999999999997Q246.09199999999998 2.912 244.844 2.73Q243.596 2.548 242.816 1.6119999999999999Z" fill="#3B4A54"/>
<path transform="translate(339.0,468.0)" d="M295.2 -8.475999999999999Q294.004 -8.475999999999999 293.12 -9.36Q292.236 -10.244 292.236 -11.44Q292.236 -12.636 293.12 -13.52Q294.004 -14.404 295.2 -14.404H312.932Q313.4 -14.404 313.4 -14.819999999999999V-15.184Q313.4 -16.38 314.284 -17.238Q315.168 -18.096 316.364 -18.096H317.56H317.976Q318.34 -18.044 318.704 -18.304L319.016 -18.616Q321.044 -20.02 323.176 -21.683999999999997Q323.28 -21.736 323.22799999999995 -21.84Q323.176 -21.944 323.072 -21.944H302.844Q301.648 -21.944 300.842 -22.776Q300.036 -23.608 300.036 -24.752V-24.907999999999998Q300.036 -25.012 299.95799999999997 -25.038Q299.88 -25.064 299.828 -25.012Q298.996 -23.919999999999998 297.54 -23.919999999999998H296.76Q295.564 -23.919999999999998 294.68 -24.804Q293.796 -25.688 293.796 -26.884V-33.123999999999995Q293.796 -34.32 294.68 -35.178Q295.564 -36.036 296.76 -36.036H299.984Q300.14 -36.036 300.21799999999996 -36.166Q300.296 -36.296 300.244 -36.4Q299.828 -37.232 299.36 -38.012Q298.788 -39.0 299.204 -40.092Q299.62 -41.184 300.712 -41.547999999999995L301.18 -41.756Q302.376 -42.172 303.572 -41.756Q304.768 -41.339999999999996 305.392 -40.196Q306.536 -38.22 307.368 -36.504Q307.576 -36.036 307.992 -36.036H312.412Q312.568 -36.036 312.672 -36.192Q312.776 -36.348 312.672 -36.452L311.58 -38.48Q311.008 -39.467999999999996 311.424 -40.586Q311.84 -41.704 312.932 -42.068L313.4 -42.275999999999996Q314.596 -42.692 315.79200000000003 -42.275999999999996Q316.988 -41.86 317.612 -40.716Q318.912 -38.272 319.796 -36.4Q319.952 -36.036 320.42 -36.036H324.112Q324.476 -36.036 324.736 -36.452Q325.776 -38.272 326.868 -40.248Q327.44 -41.391999999999996 328.61 -41.964Q329.78 -42.536 331.028 -42.224L331.496 -42.12Q332.588 -41.86 333.082 -40.872Q333.576 -39.884 333.056 -38.844L331.808 -36.504Q331.704 -36.4 331.78200000000004 -36.218Q331.86 -36.036 332.016 -36.036H335.24Q336.436 -36.036 337.32 -35.178Q338.204 -34.32 338.204 -33.123999999999995V-26.884Q338.204 -25.688 337.32 -24.804Q336.436 -23.919999999999998 335.24 -23.919999999999998H334.46Q333.004 -23.919999999999998 332.172 -25.012Q332.068 -25.064 331.964 -24.907999999999998Q331.964 -24.855999999999998 332.016 -24.752Q332.016 -21.892 329.988 -20.02Q327.024 -17.316 323.28 -14.664Q323.176 -14.559999999999999 323.22799999999995 -14.482Q323.28 -14.404 323.384 -14.404H336.8Q337.996 -14.404 338.88 -13.52Q339.764 -12.636 339.764 -11.44Q339.764 -10.244 338.88 -9.36Q337.996 -8.475999999999999 336.8 -8.475999999999999H320.94Q320.524 -8.475999999999999 320.524 -8.06V-1.8719999999999999Q320.524 0.572 320.368 1.69Q320.212 2.808 319.25 3.562Q318.288 4.316 316.90999999999997 4.446Q315.532 4.576 312.464 4.576Q309.396 4.576 306.796 4.4719999999999995Q305.548 4.42 304.716 3.562Q303.884 2.7039999999999997 303.78 1.456Q303.676 0.26 304.508 -0.572Q305.34 -1.404 306.484 -1.3519999999999999Q309.968 -1.196 311.424 -1.196Q312.88 -1.196 313.14 -1.43Q313.4 -1.664 313.4 -2.964V-8.06Q313.4 -8.475999999999999 312.932 -8.475999999999999ZM302.844 -27.56H329.156Q330.456 -27.56 331.34 -26.52Q331.444 -26.468 331.548 -26.624Q331.548 -26.676 331.522 -26.753999999999998Q331.496 -26.831999999999997 331.496 -26.884V-30.212Q331.496 -30.68 331.08 -30.68H300.92Q300.504 -30.68 300.504 -30.212V-26.884Q300.504 -26.831999999999997 300.478 -26.753999999999998Q300.452 -26.676 300.452 -26.624Q300.452 -26.572 300.53 -26.52Q300.608 -26.468 300.66 -26.52Q301.544 -27.56 302.844 -27.56Z" fill="#3B4A54"/>
<path transform="translate(339.0,468.0)" d="M380.76 -38.687999999999995Q381.852 -39.26 383.048 -38.896Q384.244 -38.532 384.816 -37.44Q385.804 -35.724 386.896 -33.488Q387.468 -32.396 387.078 -31.252Q386.688 -30.107999999999997 385.596 -29.587999999999997L385.076 -29.328Q383.984 -28.756 382.81399999999996 -29.146Q381.644 -29.535999999999998 381.072 -30.628Q380.70799999999997 -31.304 380.032 -32.604Q379.356 -33.903999999999996 378.992 -34.528Q378.42 -35.568 378.75800000000004 -36.738Q379.096 -37.908 380.188 -38.428ZM389.86 -40.768Q390.952 -41.339999999999996 392.148 -40.976Q393.344 -40.611999999999995 393.916 -39.519999999999996Q395.372 -36.815999999999995 396.1 -35.412Q396.672 -34.32 396.28200000000004 -33.176Q395.892 -32.032 394.8 -31.511999999999997L394.124 -31.148Q393.032 -30.628 391.86199999999997 -31.018Q390.692 -31.407999999999998 390.12 -32.5L387.936 -36.556Q387.364 -37.596 387.72799999999995 -38.739999999999995Q388.092 -39.884 389.18399999999997 -40.455999999999996ZM352.264 -9.516 351.484 -10.244Q350.6 -11.075999999999999 350.52200000000005 -12.323999999999998Q350.444 -13.572 351.224 -14.508Q353.928 -17.68 357.672 -22.36Q362.56 -28.548 364.38 -29.951999999999998Q366.2 -31.355999999999998 369.372 -31.355999999999998Q372.23199999999997 -31.355999999999998 374.26 -30.003999999999998Q376.288 -28.651999999999997 383.1 -22.151999999999997Q389.392 -16.067999999999998 396.62 -9.516Q397.504 -8.684 397.55600000000004 -7.4879999999999995Q397.608 -6.292 396.828 -5.356L395.996 -4.367999999999999Q395.216 -3.432 393.968 -3.354Q392.72 -3.276 391.836 -4.108Q384.14 -11.075999999999999 376.028 -18.928Q372.44 -22.412 371.322 -23.244Q370.204 -24.076 369.216 -24.076Q368.176 -24.076 367.188 -23.192Q366.2 -22.308 363.6 -18.928Q358.608 -12.532 356.268 -9.724Q355.488 -8.788 354.29200000000003 -8.736Q353.096 -8.684 352.264 -9.516Z" fill="#3B4A54"/>
<path transform="translate(339.0,468.0)" d="M433.404 -3.016Q434.132 -4.784 434.132 -5.8759999999999994Q434.132 -7.4879999999999995 432.884 -8.346Q431.636 -9.203999999999999 428.412 -9.203999999999999Q425.812 -9.203999999999999 424.43399999999997 -8.346Q423.056 -7.4879999999999995 423.056 -6.239999999999999Q423.056 -2.6 431.896 -2.6H432.832Q433.196 -2.6 433.404 -3.016ZM416.14 -14.872Q415.1 -14.404 414.086 -14.768Q413.072 -15.132 412.552 -16.12Q412.032 -17.108 412.344 -18.226Q412.656 -19.343999999999998 413.644 -19.916L435.588 -33.176L435.64 -33.228L435.588 -33.28H417.752Q416.608 -33.28 415.75 -34.111999999999995Q414.892 -34.943999999999996 414.892 -36.14Q414.892 -37.336 415.75 -38.168Q416.608 -39.0 417.752 -39.0H445.052Q446.248 -39.0 447.158 -38.141999999999996Q448.068 -37.284 448.068 -36.088Q448.172 -33.228 445.52 -31.72L431.012 -23.66V-23.608H431.116Q434.548 -24.284 437.408 -24.284Q444.844 -24.284 448.666 -21.216Q452.488 -18.148 452.488 -12.479999999999999Q452.488 -5.096 447.132 -1.066Q441.776 2.964 431.896 2.964Q424.148 2.964 420.3 0.598Q416.452 -1.768 416.452 -6.239999999999999Q416.452 -9.671999999999999 419.728 -12.038Q423.004 -14.404 428.776 -14.404Q434.704 -14.404 437.356 -12.428Q440.008 -10.452 440.008 -6.604Q440.008 -5.668 439.748 -4.264Q439.696 -4.108 439.826 -4.029999999999999Q439.956 -3.952 440.06 -4.004Q445.20799999999997 -6.239999999999999 445.20799999999997 -11.856Q445.20799999999997 -15.443999999999999 442.686 -17.264Q440.164 -19.084 434.652 -19.084Q425.344 -19.084 416.14 -14.872Z" fill="#3B4A54"/>
<path transform="translate(339.0,468.0)" d="M477.80600000000004 -6.526Q476.74 -7.592 475.18 -7.592Q473.62 -7.592 472.528 -6.526Q471.436 -5.46 471.436 -3.9Q471.436 -2.34 472.528 -1.248Q473.62 -0.156 475.18 -0.156Q476.74 -0.156 477.80600000000004 -1.248Q478.872 -2.34 478.872 -3.9Q478.872 -5.46 477.80600000000004 -6.526ZM475.18 -12.376Q478.664 -12.376 481.15999999999997 -9.879999999999999Q483.656 -7.3839999999999995 483.656 -3.9Q483.656 -0.364 481.15999999999997 2.132Q478.664 4.628 475.18 4.628Q471.696 4.628 469.174 2.106Q466.652 -0.416 466.652 -3.9Q466.652 -7.3839999999999995 469.148 -9.879999999999999Q471.644 -12.376 475.18 -12.376Z" fill="#3B4A54"/>
<rect x="455" y="519" width="290" height="62" rx="31" fill="#00A99D"/>
<path transform="translate(488.9,561.0)" d="M9.724 -14.620000000000001Q5.814 -14.620000000000001 5.814 -8.84Q5.814 -5.95 6.868 -4.505Q7.922000000000001 -3.06 9.724 -3.06Q11.322000000000001 -3.06 12.478000000000002 -4.114Q13.634 -5.168 13.634 -6.5280000000000005V-11.152000000000001Q13.634 -12.512 12.478000000000002 -13.566Q11.322000000000001 -14.620000000000001 9.724 -14.620000000000001ZM8.364 0.34Q5.338 0.34 3.332 -2.1250000000000004Q1.326 -4.590000000000001 1.326 -8.84Q1.326 -13.226 3.247 -15.623000000000001Q5.168 -18.02 8.364 -18.02Q11.254000000000001 -18.02 13.464 -15.912Q13.498000000000001 -15.878000000000002 13.532 -15.878000000000002Q13.566 -15.878000000000002 13.566 -15.912V-23.562Q13.566 -24.344 14.144000000000002 -24.922000000000004Q14.722000000000001 -25.500000000000004 15.504000000000001 -25.500000000000004H16.184Q16.966 -25.500000000000004 17.544 -24.922000000000004Q18.122 -24.344 18.122 -23.562V-1.9380000000000002Q18.122 -1.1560000000000001 17.544 -0.5780000000000001Q16.966 0.0 16.184 0.0H15.81Q14.994000000000002 0.0 14.433000000000002 -0.561Q13.872000000000002 -1.122 13.838000000000001 -1.9380000000000002L13.804 -2.176Q13.804 -2.21 13.77 -2.21Q13.736 -2.21 13.702000000000002 -2.176Q11.458 0.34 8.364 0.34Z" fill="#FFFFFF"/>
<path transform="translate(488.9,561.0)" d="M34.405 -13.311Q33.402 -14.722000000000001 31.396 -14.722000000000001Q29.39 -14.722000000000001 28.387 -13.311Q27.384 -11.9 27.384 -8.84Q27.384 -5.78 28.387 -4.369Q29.39 -2.958 31.396 -2.958Q33.402 -2.958 34.405 -4.369Q35.408 -5.78 35.408 -8.84Q35.408 -11.9 34.405 -13.311ZM37.737 -2.0570000000000004Q35.476 0.34 31.396 0.34Q27.316000000000003 0.34 25.055 -2.0570000000000004Q22.794 -4.454000000000001 22.794 -8.84Q22.794 -13.226 25.055 -15.623000000000001Q27.316000000000003 -18.02 31.396 -18.02Q35.476 -18.02 37.737 -15.623000000000001Q39.998000000000005 -13.226 39.998000000000005 -8.84Q39.998000000000005 -4.454000000000001 37.737 -2.0570000000000004Z" fill="#FFFFFF"/>
<path transform="translate(488.9,561.0)" d="M46.438 0.0Q45.656000000000006 0.0 45.078 -0.5780000000000001Q44.5 -1.1560000000000001 44.5 -1.9380000000000002V-15.742Q44.5 -16.524 45.078 -17.102Q45.656000000000006 -17.68 46.438 -17.68H46.88Q47.696000000000005 -17.68 48.257000000000005 -17.119Q48.818000000000005 -16.558 48.852000000000004 -15.742V-15.504000000000001Q48.852000000000004 -15.47 48.886 -15.47Q48.92 -15.47 48.95400000000001 -15.504000000000001Q51.266000000000005 -18.02 54.36000000000001 -18.02Q57.45400000000001 -18.02 58.86500000000001 -16.269Q60.276 -14.518 60.276 -10.438V-1.9380000000000002Q60.276 -1.1560000000000001 59.69800000000001 -0.5780000000000001Q59.120000000000005 0.0 58.33800000000001 0.0H57.760000000000005Q56.97800000000001 0.0 56.41700000000001 -0.5780000000000001Q55.85600000000001 -1.1560000000000001 55.85600000000001 -1.9380000000000002V-10.098Q55.85600000000001 -12.648000000000001 55.193000000000005 -13.583000000000002Q54.53 -14.518 52.830000000000005 -14.518Q51.43600000000001 -14.518 50.24600000000001 -13.328000000000001Q49.056000000000004 -12.138000000000002 49.056000000000004 -10.778V-1.9380000000000002Q49.056000000000004 -1.1560000000000001 48.47800000000001 -0.5780000000000001Q47.900000000000006 0.0 47.118 0.0Z" fill="#FFFFFF"/>
<path transform="translate(488.9,561.0)" d="M76.21900000000001 -13.311Q75.21600000000001 -14.722000000000001 73.21000000000001 -14.722000000000001Q71.20400000000001 -14.722000000000001 70.20100000000001 -13.311Q69.19800000000001 -11.9 69.19800000000001 -8.84Q69.19800000000001 -5.78 70.20100000000001 -4.369Q71.20400000000001 -2.958 73.21000000000001 -2.958Q75.21600000000001 -2.958 76.21900000000001 -4.369Q77.22200000000001 -5.78 77.22200000000001 -8.84Q77.22200000000001 -11.9 76.21900000000001 -13.311ZM79.55100000000002 -2.0570000000000004Q77.29 0.34 73.21000000000001 0.34Q69.13000000000001 0.34 66.869 -2.0570000000000004Q64.608 -4.454000000000001 64.608 -8.84Q64.608 -13.226 66.869 -15.623000000000001Q69.13000000000001 -18.02 73.21000000000001 -18.02Q77.29 -18.02 79.55100000000002 -15.623000000000001Q81.81200000000001 -13.226 81.81200000000001 -8.84Q81.81200000000001 -4.454000000000001 79.55100000000002 -2.0570000000000004Z" fill="#FFFFFF"/>
<path transform="translate(488.9,561.0)" d="M88.218 0.0Q87.436 0.0 86.875 -0.5780000000000001Q86.31400000000001 -1.1560000000000001 86.31400000000001 -1.9380000000000002V-15.742Q86.31400000000001 -16.524 86.875 -17.102Q87.436 -17.68 88.218 -17.68H88.694Q89.476 -17.68 90.037 -17.136000000000003Q90.598 -16.592000000000002 90.632 -15.81V-15.572000000000001Q90.632 -15.538 90.666 -15.538Q90.73400000000001 -15.538 90.73400000000001 -15.572000000000001Q92.74000000000001 -18.02 95.256 -18.02Q96.786 -18.02 97.721 -17.442Q98.656 -16.864 99.37 -15.402000000000001Q99.37 -15.368 99.438 -15.368Q99.47200000000001 -15.368 99.506 -15.402000000000001Q101.648 -18.02 104.334 -18.02Q107.156 -18.02 108.397 -16.490000000000002Q109.638 -14.96 109.638 -11.22V-1.9380000000000002Q109.638 -1.1560000000000001 109.077 -0.5780000000000001Q108.516 0.0 107.73400000000001 0.0H107.156Q106.37400000000001 0.0 105.796 -0.5780000000000001Q105.218 -1.1560000000000001 105.218 -1.9380000000000002V-10.540000000000001Q105.218 -13.022 104.742 -13.804Q104.266 -14.586 102.906 -14.586Q102.022 -14.586 101.138 -13.77Q100.254 -12.954 100.254 -12.138000000000002V-1.9380000000000002Q100.254 -1.1560000000000001 99.676 -0.5780000000000001Q99.098 0.0 98.316 0.0H97.738Q96.956 0.0 96.39500000000001 -0.5780000000000001Q95.834 -1.1560000000000001 95.834 -1.9380000000000002V-10.540000000000001Q95.834 -12.988000000000001 95.34100000000001 -13.787Q94.848 -14.586 93.488 -14.586Q92.604 -14.586 91.72 -13.77Q90.836 -12.954 90.836 -12.138000000000002V-1.9380000000000002Q90.836 -1.1560000000000001 90.25800000000001 -0.5780000000000001Q89.68 0.0 88.89800000000001 0.0Z" fill="#FFFFFF"/>
<path transform="translate(488.9,561.0)" d="M123.49000000000001 -8.5Q118.62800000000001 -8.5 118.62800000000001 -5.508Q118.62800000000001 -4.42 119.257 -3.74Q119.88600000000001 -3.06 120.87200000000001 -3.06Q122.81 -3.06 124.0 -4.267Q125.19000000000001 -5.474 125.19000000000001 -7.582000000000001V-8.194Q125.19000000000001 -8.5 124.88400000000001 -8.5ZM119.64800000000001 0.34Q117.33600000000001 0.34 115.82300000000001 -1.1730000000000003Q114.31 -2.6860000000000004 114.31 -5.1000000000000005Q114.31 -8.058 116.571 -9.690000000000001Q118.83200000000001 -11.322000000000001 123.49000000000001 -11.322000000000001H124.88400000000001Q125.19000000000001 -11.322000000000001 125.19000000000001 -11.628V-11.9Q125.19000000000001 -13.464 124.44200000000001 -14.093Q123.694 -14.722000000000001 121.79 -14.722000000000001Q119.81800000000001 -14.722000000000001 116.962 -14.008000000000001Q116.35000000000001 -13.838000000000001 115.84 -14.229000000000001Q115.33000000000001 -14.620000000000001 115.33000000000001 -15.266000000000002Q115.33000000000001 -16.048000000000002 115.80600000000001 -16.677Q116.28200000000001 -17.306 117.03 -17.442Q119.614 -18.02 121.89200000000001 -18.02Q126.24400000000001 -18.02 127.97800000000001 -16.456Q129.71200000000002 -14.892000000000001 129.71200000000002 -10.982000000000001V-1.9380000000000002Q129.71200000000002 -1.1560000000000001 129.151 -0.5780000000000001Q128.59 0.0 127.808 0.0H127.43400000000001Q126.61800000000001 0.0 126.04 -0.561Q125.462 -1.122 125.42800000000001 -1.9380000000000002V-2.414Q125.42800000000001 -2.4480000000000004 125.394 -2.4480000000000004Q125.32600000000001 -2.4480000000000004 125.32600000000001 -2.414Q123.25200000000001 0.34 119.64800000000001 0.34Z" fill="#FFFFFF"/>
<path transform="translate(488.9,561.0)" d="M137.172 0.0Q136.39000000000001 0.0 135.812 -0.5780000000000001Q135.234 -1.1560000000000001 135.234 -1.9380000000000002V-15.742Q135.234 -16.524 135.812 -17.102Q136.39000000000001 -17.68 137.172 -17.68H137.614Q138.43 -17.68 138.99099999999999 -17.119Q139.552 -16.558 139.586 -15.742V-15.504000000000001Q139.586 -15.47 139.62 -15.47Q139.654 -15.47 139.68800000000002 -15.504000000000001Q142.0 -18.02 145.094 -18.02Q148.18800000000002 -18.02 149.599 -16.269Q151.01 -14.518 151.01 -10.438V-1.9380000000000002Q151.01 -1.1560000000000001 150.43200000000002 -0.5780000000000001Q149.854 0.0 149.072 0.0H148.494Q147.71200000000002 0.0 147.151 -0.5780000000000001Q146.59 -1.1560000000000001 146.59 -1.9380000000000002V-10.098Q146.59 -12.648000000000001 145.92700000000002 -13.583000000000002Q145.264 -14.518 143.564 -14.518Q142.17000000000002 -14.518 140.98000000000002 -13.328000000000001Q139.79 -12.138000000000002 139.79 -10.778V-1.9380000000000002Q139.79 -1.1560000000000001 139.212 -0.5780000000000001Q138.63400000000001 0.0 137.852 0.0Z" fill="#FFFFFF"/>
<path transform="translate(488.9,561.0)" d="M164.862 -8.5Q160.0 -8.5 160.0 -5.508Q160.0 -4.42 160.62900000000002 -3.74Q161.258 -3.06 162.244 -3.06Q164.18200000000002 -3.06 165.372 -4.267Q166.562 -5.474 166.562 -7.582000000000001V-8.194Q166.562 -8.5 166.256 -8.5ZM161.02 0.34Q158.708 0.34 157.195 -1.1730000000000003Q155.68200000000002 -2.6860000000000004 155.68200000000002 -5.1000000000000005Q155.68200000000002 -8.058 157.943 -9.690000000000001Q160.204 -11.322000000000001 164.862 -11.322000000000001H166.256Q166.562 -11.322000000000001 166.562 -11.628V-11.9Q166.562 -13.464 165.81400000000002 -14.093Q165.066 -14.722000000000001 163.162 -14.722000000000001Q161.19 -14.722000000000001 158.334 -14.008000000000001Q157.722 -13.838000000000001 157.212 -14.229000000000001Q156.702 -14.620000000000001 156.702 -15.266000000000002Q156.702 -16.048000000000002 157.178 -16.677Q157.654 -17.306 158.40200000000002 -17.442Q160.98600000000002 -18.02 163.264 -18.02Q167.616 -18.02 169.35000000000002 -16.456Q171.084 -14.892000000000001 171.084 -10.982000000000001V-1.9380000000000002Q171.084 -1.1560000000000001 170.52300000000002 -0.5780000000000001Q169.96200000000002 0.0 169.18 0.0H168.806Q167.99 0.0 167.412 -0.561Q166.834 -1.122 166.8 -1.9380000000000002V-2.414Q166.8 -2.4480000000000004 166.76600000000002 -2.4480000000000004Q166.698 -2.4480000000000004 166.698 -2.414Q164.624 0.34 161.02 0.34Z" fill="#FFFFFF"/>
<path transform="translate(488.9,561.0)" d="M179.22400000000002 0.0Q178.442 0.0 177.86400000000003 -0.5780000000000001Q177.28600000000003 -1.1560000000000001 177.28600000000003 -1.9380000000000002V-3.842Q177.28600000000003 -4.6240000000000006 177.86400000000003 -5.202Q178.442 -5.78 179.22400000000002 -5.78H180.788Q181.57000000000002 -5.78 182.14800000000002 -5.202Q182.72600000000003 -4.6240000000000006 182.72600000000003 -3.842V-1.9380000000000002Q182.72600000000003 -1.1560000000000001 182.14800000000002 -0.5780000000000001Q181.57000000000002 0.0 180.788 0.0Z" fill="#FFFFFF"/>
<path transform="translate(488.9,561.0)" d="M188.044 7.446000000000001Q187.262 7.48 186.735 6.953Q186.208 6.426 186.208 5.678000000000001Q186.208 4.964 186.752 4.42Q187.29600000000002 3.8760000000000003 188.044 3.8080000000000003Q190.322 3.672 190.985 2.856Q191.64800000000002 2.04 191.64800000000002 -0.34V-15.742Q191.64800000000002 -16.524 192.226 -17.102Q192.804 -17.68 193.586 -17.68H194.50400000000002Q195.286 -17.68 195.847 -17.102Q196.40800000000002 -16.524 196.40800000000002 -15.742V-0.34Q196.40800000000002 3.978 194.72500000000002 5.61Q193.042 7.242000000000001 188.044 7.446000000000001ZM194.50400000000002 -25.500000000000004Q195.286 -25.500000000000004 195.847 -24.922000000000004Q196.40800000000002 -24.344 196.40800000000002 -23.562V-23.358Q196.40800000000002 -22.576 195.847 -21.998Q195.286 -21.42 194.50400000000002 -21.42H193.586Q192.804 -21.42 192.226 -21.998Q191.64800000000002 -22.576 191.64800000000002 -23.358V-23.562Q191.64800000000002 -24.344 192.226 -24.922000000000004Q192.804 -25.500000000000004 193.586 -25.500000000000004Z" fill="#FFFFFF"/>
<path transform="translate(488.9,561.0)" d="M207.608 -11.152000000000001V-6.5280000000000005Q207.608 -5.168 208.781 -4.114Q209.954 -3.06 211.518 -3.06Q213.32 -3.06 214.374 -4.522Q215.428 -5.984 215.428 -8.84Q215.428 -14.620000000000001 211.518 -14.620000000000001Q209.954 -14.620000000000001 208.781 -13.566Q207.608 -12.512 207.608 -11.152000000000001ZM205.058 7.48Q204.276 7.48 203.698 6.902000000000001Q203.12 6.324000000000001 203.12 5.542000000000001V-15.742Q203.12 -16.524 203.698 -17.102Q204.276 -17.68 205.058 -17.68H205.466Q206.282 -17.68 206.86 -17.119Q207.438 -16.558 207.472 -15.742V-15.504000000000001Q207.472 -15.47 207.506 -15.47Q207.54 -15.47 207.574 -15.504000000000001Q208.798 -16.864 210.022 -17.442Q211.246 -18.02 212.87800000000001 -18.02Q216.074 -18.02 217.978 -15.623000000000001Q219.882 -13.226 219.882 -8.84Q219.882 -4.590000000000001 217.893 -2.1250000000000004Q215.904 0.34 212.87800000000001 0.34Q209.92000000000002 0.34 207.744 -1.802Q207.71 -1.836 207.676 -1.836Q207.642 -1.836 207.642 -1.802V5.542000000000001Q207.642 6.324000000000001 207.08100000000002 6.902000000000001Q206.52 7.48 205.738 7.48Z" fill="#FFFFFF"/>
</svg>