<svg xmlns="http://www.w3.org/2000/svg" viewBox="0 0 512 512">
<g transform="translate(0,0)">
<rect x="0" y="0" width="241.92" height="241.92" rx="72.58" fill="#00A99D"/>
<circle cx="120.96" cy="120.96" r="62.90" fill="#FFFFFF"/>
<rect x="270.08" y="0" width="241.92" height="241.92" rx="72.58" fill="#F5A623"/>
<path d="M 391.04 55.64 L 322.46 173.21 L 459.62 173.21 Z" fill="#FFFFFF" stroke="#FFFFFF" stroke-width="24.19" stroke-linejoin="round"/>
<rect x="0" y="270.08" width="241.92" height="241.92" rx="72.58" fill="#4A8FD9"/>
<rect x="65.32" y="335.40" width="111.28" height="111.28" rx="24.48" fill="#FFFFFF"/>
<rect x="270.08" y="270.08" width="241.92" height="241.92" rx="72.58" fill="#EE6C7C"/>
<g transform="translate(316.04,314.79) scale(6.2496)"><path d="M12 21.35l-1.45-1.32C5.4 15.36 2 12.28 2 8.5 2 5.42 4.42 3 7.5 3c1.74 0 3.41.81 4.5 2.09C13.09 3.81 14.76 3 16.5 3 19.58 3 22 5.42 22 8.5c0 3.78-3.4 6.86-8.55 11.54L12 21.35z" fill="#FFFFFF"/></g>
</g>
</svg>
